<?xml version="1.0" encoding="UTF-8" standalone="no"?>
<svg
   xmlns:dc="http://purl.org/dc/elements/1.1/"
   xmlns:cc="http://creativecommons.org/ns#"
   xmlns:rdf="http://www.w3.org/1999/02/22-rdf-syntax-ns#"
   xmlns:svg="http://www.w3.org/2000/svg"
   xmlns="http://www.w3.org/2000/svg"
   viewBox="0 0 720 382.66666"
   height="382.66666"
   width="720"
   xml:space="preserve"
   id="svg2"
   version="1.1"><metadata
     id="metadata8"><rdf:RDF><cc:Work
         rdf:about=""><dc:format>image/svg+xml</dc:format><dc:type
           rdf:resource="http://purl.org/dc/dcmitype/StillImage" /></cc:Work></rdf:RDF></metadata><defs
     id="defs6" /><g
     transform="matrix(1.3333333,0,0,-1.3333333,0,382.66667)"
     id="g10"><g
       transform="scale(0.1)"
       id="g12"><g
         transform="scale(1.00007,0.999932)"
         id="g14"><path
           id="path16"
           style="fill:none;stroke:#FFFFFF;stroke-width:7.49999237;stroke-linecap:butt;stroke-linejoin:miter;stroke-miterlimit:10;stroke-dasharray:none;stroke-opacity:1"
           d="m 2275.71,2581.7 c 0,132.32 -107.27,239.59 -239.59,239.59 -132.32,0 -239.59,-107.27 -239.59,-239.59 0,-132.32 107.27,-239.58 239.59,-239.58 132.32,0 239.59,107.26 239.59,239.58" /></g><g
         transform="scale(1.00007,0.999932)"
         id="g18"><path
           id="path20"
           style="fill:none;stroke:#FFFFFF;stroke-width:7.49999237;stroke-linecap:butt;stroke-linejoin:miter;stroke-miterlimit:10;stroke-dasharray:none;stroke-opacity:1"
           d="m 2293.46,2678.89 c -40.43,107.05 -142.91,177.89 -257.34,177.89 -151.92,0 -275.08,-123.16 -275.08,-275.08 0,-151.92 123.16,-275.08 275.08,-275.08 114.42,0 216.9,70.83 257.33,177.86" /></g><g
         transform="scale(1.00007,0.999932)"
         id="g22"><path
           id="path24"
           style="fill:none;stroke:#FFFFFF;stroke-width:7.49999237;stroke-linecap:butt;stroke-linejoin:miter;stroke-miterlimit:10;stroke-dasharray:none;stroke-opacity:1"
           d="m 2293.45,2484.48 c 40.43,-107.05 142.91,-177.89 257.34,-177.89 151.93,0 275.09,123.16 275.09,275.08 0,151.92 -123.16,275.09 -275.09,275.09 -114.42,0 -216.89,-70.83 -257.33,-177.86" /></g><g
         transform="scale(1.00007,0.999932)"
         id="g26"><path
           id="path28"
           style="fill:none;stroke:#FFFFFF;stroke-width:7.49999237;stroke-linecap:butt;stroke-linejoin:miter;stroke-miterlimit:10;stroke-dasharray:none;stroke-opacity:1"
           d="m 2790.38,2581.67 c 0,132.32 -107.27,239.59 -239.59,239.59 -132.32,0 -239.59,-107.27 -239.59,-239.59 0,-132.32 107.27,-239.59 239.59,-239.59 132.32,0 239.59,107.27 239.59,239.59" /></g><g
         transform="scale(1.00007,0.999932)"
         id="g30"><path
           id="path32"
           style="fill:none;stroke:#FFFFFF;stroke-width:7.49999237;stroke-linecap:butt;stroke-linejoin:miter;stroke-miterlimit:10;stroke-dasharray:none;stroke-opacity:1"
           d="m 2521.96,1670.28 -41.08,-1.73 -39.68,-3.63 -38.46,-5.32 -37.41,-6.79 -36.54,-8.03 -35.85,-9.06 -35.33,-9.86 -35,-10.45 -34.81,-10.84 -34.72,-11.1 -34.7,-11.26 -34.72,-11.32 -34.84,-11.28 -35,-11.12 -35.24,-10.87 -35.54,-10.52 -35.8,-10.06 -35.58,-9.51 -34.77,-8.89 -33.38,-8.17 -31.39,-7.37 -28.83,-6.49 -25.66,-5.51 -21.92,-4.47" /></g><g
         transform="scale(1.00007,0.999932)"
         id="g34"><path
           id="path36"
           style="fill:none;stroke:#FFFFFF;stroke-width:7.49999237;stroke-linecap:butt;stroke-linejoin:miter;stroke-miterlimit:10;stroke-dasharray:none;stroke-opacity:1"
           d="m 2521.96,1192.93 -41.08,1.73 -39.68,3.64 -38.46,5.32 -37.41,6.78 -36.54,8.03 -35.85,9.06 -35.33,9.86 -35,10.45 -34.81,10.84 -34.72,11.1 -34.7,11.26 -34.72,11.33 -34.84,11.27 -35,11.13 -35.24,10.87 -35.54,10.51 -35.8,10.06 -35.58,9.52 -34.77,8.88 -33.38,8.17 -31.39,7.37 -28.83,6.49 -25.66,5.52 -21.92,4.46" /></g><path
         id="path38"
         style="fill:none;stroke:#FFFFFF;stroke-width:7.5;stroke-linecap:butt;stroke-linejoin:miter;stroke-miterlimit:10;stroke-dasharray:none;stroke-opacity:1"
         d="M 2383.2,499.199 2340,470.398" /><g
         transform="scale(1.00007,0.999932)"
         id="g40"><path
           id="path42"
           style="fill:none;stroke:#FFFFFF;stroke-width:7.49999237;stroke-linecap:butt;stroke-linejoin:miter;stroke-miterlimit:10;stroke-dasharray:none;stroke-opacity:1"
           d="m 2392.96,1083.53 h -3.28 -3.08 l -2.96,0.01 -2.89,0.01 -2.9,0.02 -2.96,0.03 -3.09,0.05 -3.28,0.05 -3.53,0.07 -3.76,0.09 -3.96,0.11 -4.11,0.12 -4.24,0.15 -4.34,0.17 -4.39,0.19 -4.42,0.21 -4.44,0.24 -4.48,0.27 -4.61,0.32 -4.79,0.36 -5.04,0.43 -5.34,0.49 -5.72,0.56 -6.15,0.65 -6.64,0.74 -7.12,0.86 -7.6,1 -8.04,1.18 -8.49,1.38 -8.92,1.6 -9.33,1.85 -9.72,2.13" /></g><path
         id="path44"
         style="fill:none;stroke:#FFFFFF;stroke-width:7.5;stroke-linecap:butt;stroke-linejoin:miter;stroke-miterlimit:10;stroke-dasharray:none;stroke-opacity:1"
         d="m 1968,835.199 h 379.2" /><g
         transform="scale(1.00007,0.999932)"
         id="g46"><path
           id="path48"
           style="fill:none;stroke:#FFFFFF;stroke-width:7.49999237;stroke-linecap:butt;stroke-linejoin:miter;stroke-miterlimit:10;stroke-dasharray:none;stroke-opacity:1"
           d="m 2392.96,1779.68 h -3.28 -3.08 l -2.96,-0.01 -2.89,-0.01 -2.9,-0.02 -2.96,-0.03 -3.09,-0.04 -3.28,-0.06 -3.53,-0.07 -3.76,-0.09 -3.96,-0.1 -4.11,-0.13 -4.24,-0.14 -4.34,-0.17 -4.39,-0.19 -4.42,-0.22 -4.44,-0.24 -4.48,-0.27 -4.61,-0.31 -4.79,-0.37 -5.04,-0.42 -5.34,-0.49 -5.72,-0.57 -6.15,-0.64 -6.64,-0.74 -7.12,-0.87 -7.6,-1 -8.04,-1.18 -8.49,-1.37 -8.92,-1.6 -9.33,-1.86 -9.72,-2.13" /></g><path
         id="path50"
         style="fill:none;stroke:#FFFFFF;stroke-width:7.5;stroke-linecap:butt;stroke-linejoin:miter;stroke-miterlimit:10;stroke-dasharray:none;stroke-opacity:1"
         d="m 1968,2023.2 h 379.2" /><path
         id="path52"
         style="fill:none;stroke:#FFFFFF;stroke-width:7.5;stroke-linecap:butt;stroke-linejoin:miter;stroke-miterlimit:10;stroke-dasharray:none;stroke-opacity:1"
         d="m 2383.2,2361.6 -43.2,28.8" /><path
         id="path54"
         style="fill:none;stroke:#FFFFFF;stroke-width:7.5;stroke-linecap:butt;stroke-linejoin:miter;stroke-miterlimit:10;stroke-dasharray:none;stroke-opacity:1"
         d="M 4116,1430.4 H 1365.6" /><path
         id="path56"
         style="fill:none;stroke:#FFFFFF;stroke-width:7.5;stroke-linecap:butt;stroke-linejoin:miter;stroke-miterlimit:10;stroke-dasharray:none;stroke-opacity:1"
         d="M 2548.8,2580 H 2035.2" /><path
         id="path58"
         style="fill:none;stroke:#FFFFFF;stroke-width:7.5;stroke-linecap:butt;stroke-linejoin:miter;stroke-miterlimit:10;stroke-dasharray:none;stroke-opacity:1"
         d="M 3112.8,1768.8 H 2323.2" /><path
         id="path60"
         style="fill:none;stroke:#FFFFFF;stroke-width:7.5;stroke-linecap:butt;stroke-linejoin:miter;stroke-miterlimit:10;stroke-dasharray:none;stroke-opacity:1"
         d="m 2822.4,1816.8 h -636" /><g
         transform="scale(1.00007,0.999932)"
         id="g62"><path
           id="path64"
           style="fill:none;stroke:#FFFFFF;stroke-width:7.49999237;stroke-linecap:butt;stroke-linejoin:miter;stroke-miterlimit:10;stroke-dasharray:none;stroke-opacity:1"
           d="m 2186.87,1817.02 25.04,9.79 22.85,8.13 20.74,6.65 18.74,5.34 16.82,4.21 15,3.27 13.26,2.49 11.64,1.9 10.11,1.46 8.86,1.1 7.89,0.79 7.2,0.52 6.8,0.32 6.68,0.17 6.85,0.06 7.31,0.01 h 7.98 8.65 9.25 9.76 10.22 10.59 10.89 11.11 11.29 l 11.45,-0.01 h 11.6 l 11.76,-0.02 11.92,-0.02 12.08,-0.04 12.25,-0.05 12.4,-0.07 12.56,-0.09 12.67,-0.12 12.74,-0.16 12.75,-0.23 12.72,-0.29 12.63,-0.38 12.51,-0.48 12.32,-0.59 12.09,-0.7 11.8,-0.82 11.45,-0.93 11.05,-1.02 10.59,-1.12 10.07,-1.19 9.5,-1.26 8.86,-1.33 8.17,-1.38 7.52,-1.43 6.86,-1.45 6.24,-1.48 5.64,-1.47 5.07,-1.48 4.51,-1.46 3.97,-1.42 3.48,-1.39 3,-1.34 2.59,-1.29 2.2,-1.24 1.87,-1.17 1.58,-1.1 1.33,-1.04 1.13,-0.95 0.95,-0.87 0.81,-0.8 0.68,-0.74 0.57,-0.68 0.48,-0.63 0.4,-0.59 0.34,-0.56 0.29,-0.54 0.27,-0.53 0.24,-0.51 0.22,-0.51 0.19,-0.5 0.18,-0.49 0.17,-0.49 0.15,-0.5 0.13,-0.5 0.13,-0.5 0.11,-0.52 0.11,-0.53 0.09,-0.56 0.08,-0.59 0.07,-0.64 0.06,-0.68 0.04,-0.74" /></g><g
         transform="scale(1.00007,0.999932)"
         id="g66"><path
           id="path68"
           style="fill:none;stroke:#FFFFFF;stroke-width:7.49999237;stroke-linecap:butt;stroke-linejoin:miter;stroke-miterlimit:10;stroke-dasharray:none;stroke-opacity:1"
           d="m 3294.1,1457.02 -18.01,6.11 -24.06,9.48 -24.5,10.67 -24.76,11.57 -24.8,12.12 -24.63,12.37 -24.27,12.3 -23.73,11.93 -23.15,11.43 -22.6,10.83 -22.03,10.12 -21.46,9.31 -20.91,8.4 -20.36,7.38 -19.8,6.27 -19.26,5.09 -18.73,4.01 -18.22,3.07 -17.73,2.27 -17.26,1.61 -16.8,1.09 -16.36,0.71 -15.95,0.47 -15.55,0.35 -15.22,0.24 -14.94,0.13 -14.74,0.01 -14.58,-0.11 -14.5,-0.25 -14.47,-0.37 -14.51,-0.53 -14.61,-0.69 -14.78,-0.98 -15.03,-1.39 -15.36,-1.95 -15.76,-2.63 -16.23,-3.45 -16.78,-4.4 -17.4,-5.49 -18.07,-6.64 -18.66,-7.67 -19.16,-8.48 -19.54,-9.1 -19.83,-9.51 -20.02,-9.71 -20.09,-9.72 -20.08,-9.53 -19.94,-9.16 -19.75,-8.74 -19.43,-8.3 -19.05,-7.86 -18.56,-7.38 -18,-6.9 -17.34,-6.39 -16.6,-5.87 -15.78,-5.32 -15.02,-4.74 -14.33,-4.11 -2.34,-0.59" /></g><g
         transform="scale(1.00007,0.999932)"
         id="g70"><path
           id="path72"
           style="fill:none;stroke:#FFFFFF;stroke-width:7.49999237;stroke-linecap:butt;stroke-linejoin:miter;stroke-miterlimit:10;stroke-dasharray:none;stroke-opacity:1"
           d="m 3294.1,1406.2 -18.01,-6.12 -24.06,-9.47 -24.5,-10.68 -24.76,-11.56 -24.8,-12.13 -24.63,-12.37 -24.27,-12.3 -23.73,-11.93 -23.15,-11.43 -22.6,-10.82 -22.03,-10.12 -21.46,-9.31 -20.91,-8.41 -20.36,-7.38 -19.8,-6.27 -19.26,-5.08 -18.73,-4.02 -18.22,-3.06 -17.73,-2.27 -17.26,-1.62 -16.8,-1.09 -16.36,-0.71 -15.95,-0.47 -15.55,-0.34 -15.22,-0.25 -14.94,-0.13 -14.74,-0.01 -14.58,0.11 -14.5,0.25 -14.47,0.38 -14.51,0.52 -14.61,0.7 -14.78,0.97 -15.03,1.4 -15.36,1.94 -15.76,2.63 -16.23,3.45 -16.78,4.4 -17.4,5.49 -18.07,6.65 -18.66,7.67 -19.16,8.48 -19.54,9.1 -19.83,9.5 -20.02,9.72 -20.09,9.72 -20.08,9.52 -19.94,9.16 -19.75,8.74 -19.43,8.31 -19.05,7.85 -18.56,7.39 -18,6.89 -17.34,6.39 -16.6,5.87 -15.78,5.32 -15.02,4.74 -14.33,4.12 -2.34,0.59" /></g><g
         transform="scale(1.00007,0.999932)"
         id="g74"><path
           id="path76"
           style="fill:none;stroke:#FFFFFF;stroke-width:7.49999237;stroke-linecap:butt;stroke-linejoin:miter;stroke-miterlimit:10;stroke-dasharray:none;stroke-opacity:1"
           d="m 2790.38,281.539 c 0,132.321 -107.27,239.59 -239.59,239.59 -132.32,0 -239.59,-107.269 -239.59,-239.59 0,-132.318 107.27,-239.5869 239.59,-239.5869 132.32,0 239.59,107.2689 239.59,239.5869" /></g><g
         transform="scale(1.00007,0.999932)"
         id="g78"><path
           id="path80"
           style="fill:none;stroke:#FFFFFF;stroke-width:7.49999237;stroke-linecap:butt;stroke-linejoin:miter;stroke-miterlimit:10;stroke-dasharray:none;stroke-opacity:1"
           d="M 2293.46,184.321 C 2333.9,77.2865 2436.37,6.45747 2550.79,6.45747 c 151.93,0 275.09,123.16053 275.09,275.08153 0,151.924 -123.16,275.085 -275.09,275.085 -114.43,0 -216.91,-70.841 -257.34,-177.891" /></g><path
         id="path82"
         style="fill:none;stroke:#FFFFFF;stroke-width:7.5;stroke-linecap:butt;stroke-linejoin:miter;stroke-miterlimit:10;stroke-dasharray:none;stroke-opacity:1"
         d="M 3112.8,1092 H 2323.2" /><g
         transform="scale(1.00007,0.999932)"
         id="g84"><path
           id="path86"
           style="fill:none;stroke:#FFFFFF;stroke-width:7.49999237;stroke-linecap:butt;stroke-linejoin:miter;stroke-miterlimit:10;stroke-dasharray:none;stroke-opacity:1"
           d="m 2186.87,1046.2 25.04,-9.79 22.85,-8.14 20.74,-6.64 18.74,-5.35 16.82,-4.21 15,-3.26 13.26,-2.49 11.64,-1.9 10.11,-1.47 8.86,-1.09 7.89,-0.79 7.2,-0.53 6.8,-0.32 6.68,-0.16 6.85,-0.063 7.31,-0.011 h 7.98 8.65 9.25 9.76 10.22 10.59 10.89 11.11 l 11.29,0.003 h 11.45 l 11.6,0.008 11.76,0.013 11.92,0.03 12.08,0.04 12.25,0.05 12.4,0.06 12.56,0.09 12.67,0.12 12.74,0.17 12.75,0.22 12.72,0.3 12.63,0.38 12.51,0.47 12.32,0.59 12.09,0.71 11.8,0.82 11.45,0.92 11.05,1.03 10.59,1.11 10.07,1.19 9.5,1.27 8.86,1.33 8.17,1.38 7.52,1.42 6.86,1.46 6.24,1.47 5.64,1.48 5.07,1.47 4.51,1.46 3.97,1.43 3.48,1.39 3,1.34 2.59,1.29 2.2,1.23 1.87,1.17 1.58,1.11 1.33,1.03 1.13,0.96 0.95,0.87 0.81,0.8 0.68,0.74 0.57,0.67 0.48,0.63 0.4,0.59 0.34,0.57 0.29,0.54 0.27,0.52 0.24,0.52 0.22,0.5 0.19,0.5 0.18,0.5 0.17,0.49 0.15,0.49 0.13,0.5 0.13,0.5 0.11,0.52 0.11,0.53 0.09,0.56 0.08,0.6 0.07,0.63 0.06,0.69 0.04,0.74" /></g><path
         id="path88"
         style="fill:none;stroke:#FFFFFF;stroke-width:7.5;stroke-linecap:butt;stroke-linejoin:miter;stroke-miterlimit:10;stroke-dasharray:none;stroke-opacity:1"
         d="m 2822.4,1044 h -636" /><path
         id="path90"
         style="fill:none;stroke:#FFFFFF;stroke-width:7.5;stroke-linecap:butt;stroke-linejoin:miter;stroke-miterlimit:10;stroke-dasharray:none;stroke-opacity:1"
         d="M 1728,1430.4 1497.6,928.801" /><path
         id="path92"
         style="fill:none;stroke:#FFFFFF;stroke-width:7.5;stroke-linecap:butt;stroke-linejoin:miter;stroke-miterlimit:10;stroke-dasharray:none;stroke-opacity:1"
         d="M 2088,835.199 1898.4,1274.4" /><path
         id="path94"
         style="fill:none;stroke:#FFFFFF;stroke-width:7.5;stroke-linecap:butt;stroke-linejoin:miter;stroke-miterlimit:10;stroke-dasharray:none;stroke-opacity:1"
         d="M 1694.4,1394.4 2109.6,544.801" /><path
         id="path96"
         style="fill:none;stroke:#FFFFFF;stroke-width:7.5;stroke-linecap:butt;stroke-linejoin:miter;stroke-miterlimit:10;stroke-dasharray:none;stroke-opacity:1"
         d="m 1281.6,828 136.8,602.4" /><path
         id="path98"
         style="fill:none;stroke:#FFFFFF;stroke-width:7.5;stroke-linecap:butt;stroke-linejoin:miter;stroke-miterlimit:10;stroke-dasharray:none;stroke-opacity:1"
         d="m 1324.8,828 160.8,571.2" /><path
         id="path100"
         style="fill:none;stroke:#FFFFFF;stroke-width:7.5;stroke-linecap:butt;stroke-linejoin:miter;stroke-miterlimit:10;stroke-dasharray:none;stroke-opacity:1"
         d="M 1728,1430.4 1497.6,1932" /><path
         id="path102"
         style="fill:none;stroke:#FFFFFF;stroke-width:7.5;stroke-linecap:butt;stroke-linejoin:miter;stroke-miterlimit:10;stroke-dasharray:none;stroke-opacity:1"
         d="m 1694.4,1466.4 412.8,844.8" /><path
         id="path104"
         style="fill:none;stroke:#FFFFFF;stroke-width:7.5;stroke-linecap:butt;stroke-linejoin:miter;stroke-miterlimit:10;stroke-dasharray:none;stroke-opacity:1"
         d="M 2088,2023.2 1898.4,1586.4" /><path
         id="path106"
         style="fill:none;stroke:#FFFFFF;stroke-width:7.5;stroke-linecap:butt;stroke-linejoin:miter;stroke-miterlimit:10;stroke-dasharray:none;stroke-opacity:1"
         d="m 1324.8,2032.8 160.8,-571.2" /><path
         id="path108"
         style="fill:none;stroke:#FFFFFF;stroke-width:7.5;stroke-linecap:butt;stroke-linejoin:miter;stroke-miterlimit:10;stroke-dasharray:none;stroke-opacity:1"
         d="m 1281.6,2032.8 136.8,-602.4" /><path
         id="path110"
         style="fill:none;stroke:#FFFFFF;stroke-width:7.5;stroke-linecap:butt;stroke-linejoin:miter;stroke-miterlimit:10;stroke-dasharray:none;stroke-opacity:1"
         d="m 1324.8,2032.8 h -43.2" /><g
         transform="scale(1.00007,0.999932)"
         id="g112"><path
           id="path114"
           style="fill:none;stroke:#FFFFFF;stroke-width:7.49999237;stroke-linecap:butt;stroke-linejoin:miter;stroke-miterlimit:10;stroke-dasharray:none;stroke-opacity:1"
           d="m 1499.1,1933.06 -3.78,8.19 -3.34,7.16 -3.01,6.28 -2.8,5.56 -2.68,4.98 -2.67,4.55 -2.78,4.28 -2.98,4.15 -3.26,4.14 -3.58,4.14 -3.86,4.1 -4.14,4.04 -4.4,3.94 -4.66,3.83 -4.89,3.68 -5.12,3.5 -5.34,3.3 -5.58,3.08 -5.83,2.86 -6.1,2.63 -6.39,2.38 -6.7,2.12 -7.02,1.86 -7.37,1.58 -7.72,1.31 -8,1.05 -8.21,0.81 -8.33,0.61 -8.38,0.42 -8.35,0.28 -8.23,0.14 -8.05,0.04" /></g><path
         id="path116"
         style="fill:none;stroke:#FFFFFF;stroke-width:7.5;stroke-linecap:butt;stroke-linejoin:miter;stroke-miterlimit:10;stroke-dasharray:none;stroke-opacity:1"
         d="m 2265.6,2436 v 0" /><path
         id="path118"
         style="fill:none;stroke:#FFFFFF;stroke-width:7.5;stroke-linecap:butt;stroke-linejoin:miter;stroke-miterlimit:10;stroke-dasharray:none;stroke-opacity:1"
         d="m 2244,2390.4 h 96" /><path
         id="path120"
         style="fill:none;stroke:#FFFFFF;stroke-width:7.5;stroke-linecap:butt;stroke-linejoin:miter;stroke-miterlimit:10;stroke-dasharray:none;stroke-opacity:1"
         d="m 2203.2,2361.6 40.8,28.8" /><g
         transform="scale(1.00007,0.999932)"
         id="g122"><path
           id="path124"
           style="fill:none;stroke:#FFFFFF;stroke-width:7.49999237;stroke-linecap:butt;stroke-linejoin:miter;stroke-miterlimit:10;stroke-dasharray:none;stroke-opacity:1"
           d="m 2089.36,2581.7 c 0,29.41 -23.84,53.24 -53.24,53.24 -29.4,0 -53.24,-23.83 -53.24,-53.24 0,-29.4 23.84,-53.24 53.24,-53.24 29.4,0 53.24,23.84 53.24,53.24" /></g><path
         id="path126"
         style="fill:none;stroke:#FFFFFF;stroke-width:7.5;stroke-linecap:butt;stroke-linejoin:miter;stroke-miterlimit:10;stroke-dasharray:none;stroke-opacity:1"
         d="m 2088,2023.2 124.8,259.2" /><path
         id="path128"
         style="fill:none;stroke:#FFFFFF;stroke-width:7.5;stroke-linecap:butt;stroke-linejoin:miter;stroke-miterlimit:10;stroke-dasharray:none;stroke-opacity:1"
         d="m 2092.8,2282.4 h 120" /><g
         transform="scale(1.00007,0.999932)"
         id="g130"><path
           id="path132"
           style="fill:none;stroke:#FFFFFF;stroke-width:7.49999237;stroke-linecap:butt;stroke-linejoin:miter;stroke-miterlimit:10;stroke-dasharray:none;stroke-opacity:1"
           d="m 1419.2,1431.61 15.54,1.47 15.55,2.36 15.55,2.65 15.54,2.67 15.55,2.56 15.55,2.32 15.55,1.95 15.54,1.39 15.55,0.77 15.54,0.4 15.55,0.11 15.55,-0.16 15.54,-0.45 15.55,-0.73 15.55,-1.03 15.55,-1.35 15.54,-1.77 15.55,-2.29 7.77,-1.43 7.77,-1.68 7.78,-2.14 3.89,-1.4 1.55,-0.84 0.78,-0.56 0.74,-0.78" /></g><g
         transform="scale(1.00007,0.999932)"
         id="g134"><path
           id="path136"
           style="fill:none;stroke:#FFFFFF;stroke-width:7.49999237;stroke-linecap:butt;stroke-linejoin:miter;stroke-miterlimit:10;stroke-dasharray:none;stroke-opacity:1"
           d="m 1419.2,1431.61 15.54,-1.48 15.55,-2.36 15.55,-2.64 15.54,-2.68 15.55,-2.56 15.55,-2.32 15.55,-1.94 15.54,-1.4 15.55,-0.77 15.54,-0.4 15.55,-0.11 15.55,0.17 15.54,0.44 15.55,0.73 15.55,1.03 15.55,1.36 15.54,1.76 15.55,2.3 7.77,1.42 7.77,1.69 7.78,2.14 3.89,1.4 1.55,0.84 0.78,0.56 0.74,0.78" /></g><path
         id="path138"
         style="fill:none;stroke:#FFFFFF;stroke-width:7.5;stroke-linecap:butt;stroke-linejoin:miter;stroke-miterlimit:10;stroke-dasharray:none;stroke-opacity:1"
         d="M 1735.2,1430.4 H 1418.4" /><path
         id="path140"
         style="fill:none;stroke:#FFFFFF;stroke-width:7.5;stroke-linecap:butt;stroke-linejoin:miter;stroke-miterlimit:10;stroke-dasharray:none;stroke-opacity:1"
         d="m 1411.2,1461.6 h 74.4" /><path
         id="path142"
         style="fill:none;stroke:#FFFFFF;stroke-width:7.5;stroke-linecap:butt;stroke-linejoin:miter;stroke-miterlimit:10;stroke-dasharray:none;stroke-opacity:1"
         d="m 1418.4,1430.4 v 2.4" /><path
         id="path144"
         style="fill:none;stroke:#FFFFFF;stroke-width:7.5;stroke-linecap:butt;stroke-linejoin:miter;stroke-miterlimit:10;stroke-dasharray:none;stroke-opacity:1"
         d="m 1411.2,1399.2 h 74.4" /><g
         transform="scale(1.00007,0.999932)"
         id="g146"><path
           id="path148"
           style="fill:none;stroke:#FFFFFF;stroke-width:7.49999237;stroke-linecap:butt;stroke-linejoin:miter;stroke-miterlimit:10;stroke-dasharray:none;stroke-opacity:1"
           d="m 2157.42,1431.61 v 0.69 l 0.02,0.63 0.05,0.58 0.09,0.56 0.16,0.53 0.25,0.51 0.33,0.53 0.44,0.53 0.57,0.56 0.7,0.59 0.84,0.62 0.99,0.66 1.15,0.7 1.3,0.73 1.49,0.78 1.65,0.83 1.84,0.87 2.04,0.92 2.25,0.96 2.48,1.02 2.71,1.05 2.98,1.09 3.24,1.13 3.52,1.16 3.8,1.2 3.99,1.21 4.09,1.19 4.08,1.16 3.97,1.1 3.75,1.01 3.45,0.91 3.03,0.78" /></g><g
         transform="scale(1.00007,0.999932)"
         id="g150"><path
           id="path152"
           style="fill:none;stroke:#FFFFFF;stroke-width:7.49999237;stroke-linecap:butt;stroke-linejoin:miter;stroke-miterlimit:10;stroke-dasharray:none;stroke-opacity:1"
           d="m 1695.55,1466.59 c -18.44,-4.42 -36.15,-11.46 -52.6,-20.89 v 0 c -5.05,-2.89 -8.16,-8.27 -8.16,-14.09" /></g><g
         transform="scale(1.00007,0.999932)"
         id="g154"><path
           id="path156"
           style="fill:none;stroke:#FFFFFF;stroke-width:7.49999237;stroke-linecap:butt;stroke-linejoin:miter;stroke-miterlimit:10;stroke-dasharray:none;stroke-opacity:1"
           d="m 1643.6,1431.61 25.46,2.41 25.45,3.87 25.46,4.32 25.45,4.38 25.46,4.2 25.46,3.8 25.45,3.18 25.46,2.29 25.45,1.26 25.46,0.65 25.45,0.18 25.46,-0.27 25.45,-0.73 25.46,-1.2 25.45,-1.68 25.46,-2.22 25.45,-2.89 25.46,-3.75 12.73,-2.34 12.73,-2.76 12.72,-3.5 6.37,-2.29 2.54,-1.38 1.28,-0.92 1.21,-1.27" /></g><g
         transform="scale(1.00007,0.999932)"
         id="g158"><path
           id="path160"
           style="fill:none;stroke:#FFFFFF;stroke-width:7.49999237;stroke-linecap:butt;stroke-linejoin:miter;stroke-miterlimit:10;stroke-dasharray:none;stroke-opacity:1"
           d="m 2186.87,1817.02 25.04,-9.8 22.85,-8.13 20.74,-6.64 18.74,-5.34 16.82,-4.22 15,-3.26 12.44,-2.34" /></g><path
         id="path162"
         style="fill:none;stroke:#FFFFFF;stroke-width:7.5;stroke-linecap:butt;stroke-linejoin:miter;stroke-miterlimit:10;stroke-dasharray:none;stroke-opacity:1"
         d="m 1898.4,1586.4 h -144" /><g
         transform="scale(1.00007,0.999932)"
         id="g164"><path
           id="path166"
           style="fill:none;stroke:#FFFFFF;stroke-width:7.49999237;stroke-linecap:butt;stroke-linejoin:miter;stroke-miterlimit:10;stroke-dasharray:none;stroke-opacity:1"
           d="m 2325,1770.81 h -8.45 l -7.91,-0.02 -7.49,-0.05 -7.16,-0.09 -6.97,-0.16 -6.88,-0.23 -6.91,-0.32 -7.04,-0.42 -7.3,-0.56 -7.6,-0.78 -7.97,-1.09 -8.38,-1.49 -8.84,-1.98 -9.37,-2.59 -9.95,-3.27 -10.58,-4.05 -11.23,-4.9 -11.8,-5.72 -12.26,-6.45 -12.62,-7.13 -12.86,-7.73 -12.99,-8.29 -13.02,-8.75 -12.93,-9.16 -12.77,-9.51 -12.62,-9.78 -12.53,-10.03 -12.49,-10.19 -12.5,-10.32 -12.57,-10.39 -12.68,-10.39 -12.86,-10.36 -13.06,-10.27 -13.34,-10.15 -13.63,-10.04 -13.99,-9.91 -14.39,-9.77 -14.83,-9.62 -15.3,-9.46 -15.84,-9.29 -16.48,-9.11 -17.5,-8.94 -18.96,-8.81 -20.89,-8.69 -23.26,-8.59 -26.06,-8.5 -29.34,-8.45 -33.05,-8.42" /></g><g
         transform="scale(1.00007,0.999932)"
         id="g168"><path
           id="path170"
           style="fill:none;stroke:#FFFFFF;stroke-width:7.49999237;stroke-linecap:butt;stroke-linejoin:miter;stroke-miterlimit:10;stroke-dasharray:none;stroke-opacity:1"
           d="m 2186.87,1046.2 25.04,9.79 22.85,8.13 20.74,6.65 18.74,5.34 16.82,4.21 15,3.26 12.44,2.34" /></g><g
         transform="scale(1.00007,0.999932)"
         id="g172"><path
           id="path174"
           style="fill:none;stroke:#FFFFFF;stroke-width:7.49999237;stroke-linecap:butt;stroke-linejoin:miter;stroke-miterlimit:10;stroke-dasharray:none;stroke-opacity:1"
           d="m 2151.38,1428.26 c 0.85,0.91 1.33,2.11 1.33,3.35 0,1.24 -0.48,2.44 -1.33,3.34" /></g><g
         transform="scale(1.00007,0.999932)"
         id="g176"><path
           id="path178"
           style="fill:none;stroke:#FFFFFF;stroke-width:7.49999237;stroke-linecap:butt;stroke-linejoin:miter;stroke-miterlimit:10;stroke-dasharray:none;stroke-opacity:1"
           d="m 2157.42,1431.61 v -0.69 l 0.02,-0.64 0.05,-0.58 0.09,-0.55 0.16,-0.53 0.25,-0.52 0.33,-0.52 0.44,-0.54 0.57,-0.56 0.7,-0.59 0.84,-0.62 0.99,-0.66 1.15,-0.69 1.3,-0.74 1.49,-0.78 1.65,-0.82 1.84,-0.87 2.04,-0.93 2.25,-0.96 2.48,-1.01 2.71,-1.05 2.98,-1.09 3.24,-1.13 3.52,-1.17 3.8,-1.19 3.99,-1.21 4.09,-1.2 4.08,-1.15 3.97,-1.1 3.75,-1.01 3.45,-0.91 3.03,-0.78" /></g><g
         transform="scale(1.00007,0.999932)"
         id="g180"><path
           id="path182"
           style="fill:none;stroke:#FFFFFF;stroke-width:7.49999237;stroke-linecap:butt;stroke-linejoin:miter;stroke-miterlimit:10;stroke-dasharray:none;stroke-opacity:1"
           d="m 1729.32,1429.57 c 0.52,0.55 0.81,1.28 0.81,2.04 0,0.76 -0.29,1.49 -0.81,2.04" /></g><path
         id="path184"
         style="fill:none;stroke:#FFFFFF;stroke-width:7.5;stroke-linecap:butt;stroke-linejoin:miter;stroke-miterlimit:10;stroke-dasharray:none;stroke-opacity:1"
         d="m 1898.4,1274.4 h -144" /><g
         transform="scale(1.00007,0.999932)"
         id="g186"><path
           id="path188"
           style="fill:none;stroke:#FFFFFF;stroke-width:7.49999237;stroke-linecap:butt;stroke-linejoin:miter;stroke-miterlimit:10;stroke-dasharray:none;stroke-opacity:1"
           d="m 1634.79,1431.61 c 0,-5.82 3.11,-11.2 8.16,-14.1 v 0 c 16.45,-9.43 34.16,-16.47 52.6,-20.89" /></g><path
         id="path190"
         style="fill:none;stroke:#FFFFFF;stroke-width:7.5;stroke-linecap:butt;stroke-linejoin:miter;stroke-miterlimit:10;stroke-dasharray:none;stroke-opacity:1"
         d="m 1641.6,1430.4 h 439.2" /><path
         id="path192"
         style="fill:none;stroke:#FFFFFF;stroke-width:7.5;stroke-linecap:butt;stroke-linejoin:miter;stroke-miterlimit:10;stroke-dasharray:none;stroke-opacity:1"
         d="M 2088,1430.4 H 1641.6" /><path
         id="path194"
         style="fill:none;stroke:#FFFFFF;stroke-width:7.5;stroke-linecap:butt;stroke-linejoin:miter;stroke-miterlimit:10;stroke-dasharray:none;stroke-opacity:1"
         d="M 2088,1430.4 H 1646.4" /><g
         transform="scale(1.00007,0.999932)"
         id="g196"><path
           id="path198"
           style="fill:none;stroke:#FFFFFF;stroke-width:7.49999237;stroke-linecap:butt;stroke-linejoin:miter;stroke-miterlimit:10;stroke-dasharray:none;stroke-opacity:1"
           d="m 1643.6,1431.61 25.46,-2.42 25.45,-3.87 25.46,-4.32 25.45,-4.38 25.46,-4.19 25.46,-3.81 25.45,-3.18 25.46,-2.28 25.45,-1.26 25.46,-0.66 25.45,-0.18 25.46,0.27 25.45,0.73 25.46,1.2 25.45,1.68 25.46,2.23 25.45,2.88 25.46,3.76 12.73,2.34 12.73,2.75 12.72,3.5 6.37,2.29 2.54,1.38 1.28,0.92 1.21,1.27" /></g><g
         transform="scale(1.00007,0.999932)"
         id="g200"><path
           id="path202"
           style="fill:none;stroke:#FFFFFF;stroke-width:7.49999237;stroke-linecap:butt;stroke-linejoin:miter;stroke-miterlimit:10;stroke-dasharray:none;stroke-opacity:1"
           d="m 2325,1092.41 h -8.45 l -7.91,0.02 -7.49,0.05 -7.16,0.09 -6.97,0.15 -6.88,0.23 -6.91,0.32 -7.04,0.43 -7.3,0.56 -7.6,0.77 -7.97,1.09 -8.38,1.49 -8.84,1.99 -9.37,2.58 -9.95,3.27 -10.58,4.05 -11.23,4.91 -11.8,5.71 -12.26,6.45 -12.62,7.13 -12.86,7.74 -12.99,8.28 -13.02,8.75 -12.93,9.16 -12.77,9.51 -12.62,9.79 -12.53,10.02 -12.49,10.2 -12.5,10.32 -12.57,10.38 -12.68,10.4 -12.86,10.35 -13.06,10.27 -13.34,10.16 -13.63,10.04 -13.99,9.91 -14.39,9.77 -14.83,9.62 -15.3,9.46 -15.84,9.28 -16.48,9.11 -17.5,8.95 -18.96,8.8 -20.89,8.69 -23.26,8.59 -26.06,8.51 -29.34,8.45 -33.05,8.41" /></g><g
         transform="scale(1.00007,0.999932)"
         id="g204"><path
           id="path206"
           style="fill:none;stroke:#FFFFFF;stroke-width:7.49999237;stroke-linecap:butt;stroke-linejoin:miter;stroke-miterlimit:10;stroke-dasharray:none;stroke-opacity:1"
           d="m 2293.45,378.733 c -40.43,107.034 -142.91,177.863 -257.33,177.863 -151.92,0 -275.08,-123.16 -275.08,-275.085 0,-151.92 123.16,-275.08088 275.08,-275.08088 114.43,0 216.91,70.84068 257.34,177.89088" /></g><g
         transform="scale(1.00007,0.999932)"
         id="g208"><path
           id="path210"
           style="fill:none;stroke:#FFFFFF;stroke-width:7.49999237;stroke-linecap:butt;stroke-linejoin:miter;stroke-miterlimit:10;stroke-dasharray:none;stroke-opacity:1"
           d="m 2275.71,281.511 c 0,132.322 -107.27,239.591 -239.59,239.591 -132.32,0 -239.59,-107.269 -239.59,-239.591 0,-132.317 107.27,-239.5863 239.59,-239.5863 132.32,0 239.59,107.2693 239.59,239.5863" /></g><g
         transform="scale(1.00007,0.999932)"
         id="g212"><path
           id="path214"
           style="fill:none;stroke:#FFFFFF;stroke-width:7.49999237;stroke-linecap:butt;stroke-linejoin:miter;stroke-miterlimit:10;stroke-dasharray:none;stroke-opacity:1"
           d="m 1499.1,930.149 -3.78,-8.18 -3.34,-7.161 -3.01,-6.282 -2.8,-5.559 -2.68,-4.981 -2.67,-4.555 -2.78,-4.277 -2.98,-4.149 -3.26,-4.141 -3.58,-4.137 -3.86,-4.102 -4.14,-4.039 -4.4,-3.946 -4.66,-3.824 -4.89,-3.68 -5.12,-3.5 -5.34,-3.301 -5.58,-3.082 -5.83,-2.86 -6.1,-2.625 -6.39,-2.379 -6.7,-2.125 -7.02,-1.86 -7.37,-1.586 -7.72,-1.305 -8,-1.047 -8.21,-0.812 -8.33,-0.606 -8.38,-0.426 -8.35,-0.273 -8.23,-0.145 -8.05,-0.042" /></g><path
         id="path216"
         style="fill:none;stroke:#FFFFFF;stroke-width:7.5;stroke-linecap:butt;stroke-linejoin:miter;stroke-miterlimit:10;stroke-dasharray:none;stroke-opacity:1"
         d="m 1324.8,828 h -43.2" /><path
         id="path218"
         style="fill:none;stroke:#FFFFFF;stroke-width:7.5;stroke-linecap:butt;stroke-linejoin:miter;stroke-miterlimit:10;stroke-dasharray:none;stroke-opacity:1"
         d="m 2092.8,578.398 h 120" /><path
         id="path220"
         style="fill:none;stroke:#FFFFFF;stroke-width:7.5;stroke-linecap:butt;stroke-linejoin:miter;stroke-miterlimit:10;stroke-dasharray:none;stroke-opacity:1"
         d="M 2088,835.199 2212.8,578.398" /><path
         id="path222"
         style="fill:none;stroke:#FFFFFF;stroke-width:7.5;stroke-linecap:butt;stroke-linejoin:miter;stroke-miterlimit:10;stroke-dasharray:none;stroke-opacity:1"
         d="M 2203.2,499.199 2244,470.398" /><path
         id="path224"
         style="fill:none;stroke:#FFFFFF;stroke-width:7.5;stroke-linecap:butt;stroke-linejoin:miter;stroke-miterlimit:10;stroke-dasharray:none;stroke-opacity:1"
         d="m 2265.6,424.801 v 0" /><path
         id="path226"
         style="fill:none;stroke:#FFFFFF;stroke-width:7.5;stroke-linecap:butt;stroke-linejoin:miter;stroke-miterlimit:10;stroke-dasharray:none;stroke-opacity:1"
         d="m 2340,470.398 h -96" /><g
         transform="scale(1.00007,0.999932)"
         id="g228"><path
           id="path230"
           style="fill:none;stroke:#FFFFFF;stroke-width:7.49999237;stroke-linecap:butt;stroke-linejoin:miter;stroke-miterlimit:10;stroke-dasharray:none;stroke-opacity:1"
           d="m 2089.36,281.511 c 0,29.405 -23.84,53.242 -53.24,53.242 -29.4,0 -53.24,-23.837 -53.24,-53.242 0,-29.404 23.84,-53.242 53.24,-53.242 29.4,0 53.24,23.838 53.24,53.242" /></g><g
         transform="scale(1.00007,0.999932)"
         id="g232"><path
           id="path234"
           style="fill:none;stroke:#FFFFFF;stroke-width:7.49999237;stroke-linecap:butt;stroke-linejoin:miter;stroke-miterlimit:10;stroke-dasharray:none;stroke-opacity:1"
           d="m 3244.71,681.355 c 40.44,-107.035 142.91,-177.864 257.33,-177.864 151.92,0 275.08,123.161 275.08,275.081 0,151.924 -123.16,275.088 -275.08,275.088 -114.43,0 -216.91,-70.844 -257.34,-177.894" /></g><g
         transform="scale(1.00007,0.999932)"
         id="g236"><path
           id="path238"
           style="fill:none;stroke:#FFFFFF;stroke-width:7.49999237;stroke-linecap:butt;stroke-linejoin:miter;stroke-miterlimit:10;stroke-dasharray:none;stroke-opacity:1"
           d="m 3741.63,778.572 c 0,132.322 -107.27,239.588 -239.59,239.588 -132.32,0 -239.59,-107.266 -239.59,-239.588 0,-132.317 107.27,-239.586 239.59,-239.586 132.32,0 239.59,107.269 239.59,239.586" /></g><g
         transform="scale(1.00007,0.999932)"
         id="g240"><path
           id="path242"
           style="fill:none;stroke:#FFFFFF;stroke-width:7.49999237;stroke-linecap:butt;stroke-linejoin:miter;stroke-miterlimit:10;stroke-dasharray:none;stroke-opacity:1"
           d="m 3226.96,778.545 c 0,132.317 -107.27,239.585 -239.59,239.585 -132.32,0 -239.59,-107.268 -239.59,-239.585 0,-132.318 107.27,-239.587 239.59,-239.587 132.32,0 239.59,107.269 239.59,239.587" /></g><g
         transform="scale(1.00007,0.999932)"
         id="g244"><path
           id="path246"
           style="fill:none;stroke:#FFFFFF;stroke-width:7.49999237;stroke-linecap:butt;stroke-linejoin:miter;stroke-miterlimit:10;stroke-dasharray:none;stroke-opacity:1"
           d="m 3244.7,875.766 c -40.44,107.031 -142.91,177.864 -257.33,177.864 -151.92,0 -275.08,-123.165 -275.08,-275.085 0,-151.921 123.16,-275.081 275.08,-275.081 114.43,0 216.91,70.84 257.34,177.891" /></g><path
         id="path248"
         style="fill:none;stroke:#FFFFFF;stroke-width:7.5;stroke-linecap:butt;stroke-linejoin:miter;stroke-miterlimit:10;stroke-dasharray:none;stroke-opacity:1"
         d="M 3283.2,1192.8 3352.8,1008" /><path
         id="path250"
         style="fill:none;stroke:#FFFFFF;stroke-width:7.5;stroke-linecap:butt;stroke-linejoin:miter;stroke-miterlimit:10;stroke-dasharray:none;stroke-opacity:1"
         d="M 2520,1192.8 2347.2,835.199" /><g
         transform="scale(1.00007,0.999932)"
         id="g252"><path
           id="path254"
           style="fill:none;stroke:#FFFFFF;stroke-width:7.49999237;stroke-linecap:butt;stroke-linejoin:miter;stroke-miterlimit:10;stroke-dasharray:none;stroke-opacity:1"
           d="m 3865.17,1267.67 -7.88,-2.27 -7.33,-2.09 -6.86,-1.92 -6.43,-1.79 -6.09,-1.66 -5.78,-1.55 -5.56,-1.48 -5.4,-1.42 -5.28,-1.39 -5.21,-1.34 -5.17,-1.33 -5.17,-1.29 -5.19,-1.29 -5.26,-1.26 -5.35,-1.26 -5.49,-1.25 -5.63,-1.26 -5.72,-1.23 -5.75,-1.21 -5.72,-1.16 -5.62,-1.09 -5.44,-1.01 -5.22,-0.92 -4.91,-0.8 -4.56,-0.67 -4.2,-0.56 -3.87,-0.46 -3.55,-0.36 -3.25,-0.29 -2.96,-0.22 -2.69,-0.16 -2.43,-0.12 -2.2,-0.09 -1.98,-0.06 -1.8,-0.04 -1.63,-0.02 -1.49,0.01 -1.38,0.02 -1.3,0.03 -1.23,0.04 -1.2,0.06 -1.17,0.06 -1.16,0.06 -1.16,0.08 -1.16,0.09 -1.19,0.1 -1.22,0.1 -1.26,0.11 -1.31,0.13 -1.37,0.14 -1.43,0.14 -1.47,0.16 -0.1,0.02" /></g><g
         transform="scale(1.00007,0.999932)"
         id="g256"><path
           id="path258"
           style="fill:none;stroke:#FFFFFF;stroke-width:7.49999237;stroke-linecap:butt;stroke-linejoin:miter;stroke-miterlimit:10;stroke-dasharray:none;stroke-opacity:1"
           d="m 3865.17,1595.55 -7.88,2.27 -7.33,2.09 -6.86,1.92 -6.43,1.78 -6.09,1.66 -5.78,1.56 -5.56,1.48 -5.4,1.42 -5.28,1.38 -5.21,1.35 -5.17,1.32 -5.17,1.3 -5.19,1.28 -5.26,1.27 -5.35,1.26 -5.49,1.25 -5.63,1.25 -5.72,1.24 -5.75,1.2 -5.72,1.16 -5.62,1.09 -5.44,1.01 -5.22,0.92 -4.91,0.8 -4.56,0.68 -4.2,0.56 -3.87,0.45 -3.55,0.37 -3.25,0.29 -2.96,0.22 -2.69,0.16 -2.43,0.12 -2.2,0.09 -1.98,0.06 -1.8,0.03 -1.63,0.02 h -1.49 l -1.38,-0.02 -1.3,-0.03 -1.23,-0.05 -1.2,-0.05 -1.17,-0.06 -1.16,-0.07 -1.16,-0.08 -1.16,-0.09 -1.19,-0.09 -1.22,-0.1 -1.26,-0.12 -1.31,-0.13 -1.37,-0.13 -1.43,-0.15 -1.47,-0.16 -0.1,-0.01" /></g><g
         transform="scale(1.00007,0.999932)"
         id="g260"><path
           id="path262"
           style="fill:none;stroke:#FFFFFF;stroke-width:7.49999237;stroke-linecap:butt;stroke-linejoin:miter;stroke-miterlimit:10;stroke-dasharray:none;stroke-opacity:1"
           d="m 3417.35,1670.95 0.75,-0.03 1.13,-0.04 1.14,-0.04 1.14,-0.04 1.15,-0.04 1.15,-0.05 1.16,-0.04 1.17,-0.05 1.17,-0.04 1.18,-0.05 1.18,-0.04 1.2,-0.05 1.2,-0.05 1.21,-0.05 1.21,-0.05 1.22,-0.05 1.23,-0.05 1.23,-0.05 1.25,-0.06 1.25,-0.06 1.26,-0.05 1.27,-0.06 1.27,-0.05 1.29,-0.06 1.3,-0.07 1.3,-0.06 1.31,-0.06 1.32,-0.06 1.34,-0.07 1.33,-0.06 1.36,-0.07 1.36,-0.07 1.37,-0.07 1.38,-0.07 1.39,-0.07 1.4,-0.07 1.41,-0.08 1.42,-0.08 1.44,-0.07 1.44,-0.08 1.46,-0.09 1.47,-0.08 1.47,-0.08 1.5,-0.09 1.5,-0.08 1.51,-0.09 1.53,-0.09 1.53,-0.09 1.56,-0.09 1.56,-0.1 1.57,-0.1 1.59,-0.09 1.6,-0.1 1.61,-0.11 1.63,-0.1 1.63,-0.11 1.66,-0.11 1.66,-0.11 1.68,-0.11 1.69,-0.12 1.7,-0.12 1.72,-0.12 1.73,-0.12 1.75,-0.13 1.76,-0.13 1.77,-0.13 1.78,-0.13 1.81,-0.14 1.81,-0.14 1.83,-0.14 1.84,-0.15 1.86,-0.15 1.88,-0.15 1.88,-0.16 1.91,-0.15 1.91,-0.17 1.94,-0.16 1.94,-0.17 1.96,-0.17 1.98,-0.18 2,-0.18 2,-0.18 2.03,-0.19 2.04,-0.19 2.06,-0.19 2.07,-0.2 2.09,-0.2 2.1,-0.21 2.12,-0.21 2.14,-0.21 2.15,-0.22 2.17,-0.22 2.18,-0.23 2.21,-0.23 2.22,-0.24 2.23,-0.24 2.26,-0.24 2.27,-0.25 2.29,-0.26 2.3,-0.26 2.32,-0.26 2.34,-0.27 2.36,-0.27 2.38,-0.28 2.39,-0.28 2.41,-0.29 2.43,-0.29 2.45,-0.3 2.47,-0.31 2.48,-0.31 2.51,-0.31 2.53,-0.33 2.54,-0.32 2.56,-0.34 2.59,-0.34 2.6,-0.35 2.63,-0.36 2.64,-0.36 2.67,-0.37 2.69,-0.38 2.71,-0.39 2.73,-0.39 2.75,-0.41 2.78,-0.41 2.81,-0.42 2.82,-0.43 2.85,-0.44 2.87,-0.45 2.89,-0.46 2.92,-0.47 2.95,-0.48 2.97,-0.48 2.99,-0.5 3.02,-0.52 3.05,-0.52 3.07,-0.53 3.1,-0.54 3.13,-0.56 3.15,-0.57 3.17,-0.58 3.21,-0.59 3.24,-0.61 3.26,-0.62 3.29,-0.63 3.32,-0.64 3.35,-0.66 3.38,-0.67 3.41,-0.69 3.43,-0.7 3.47,-0.71 3.5,-0.73 3.53,-0.74 3.56,-0.76 3.59,-0.78 3.62,-0.78 3.65,-0.81 3.69,-0.82 3.72,-0.84 3.75,-0.85 3.78,-0.87 3.82,-0.88 3.85,-0.91 3.88,-0.92 3.92,-0.94 3.95,-0.95 3.99,-0.98 4.02,-0.99 4.06,-1.01 4.09,-1.03 4.13,-1.05 4.16,-1.06 4.2,-1.09 4.23,-1.1 4.27,-1.13 4.3,-1.15 4.34,-1.17 4.37,-1.19 4.4,-1.21 4.44,-1.24 4.48,-1.25 4.5,-1.28 4.54,-1.31 4.57,-1.33 4.6,-1.35 4.64,-1.38 4.66,-1.4 4.7,-1.44 4.72,-1.46 4.76,-1.48 4.79,-1.51 4.82,-1.54 4.84,-1.57 4.88,-1.6 4.9,-1.62 4.93,-1.66 4.97,-1.69 5.03,-1.74 5.14,-1.8 5.3,-1.88 5.48,-1.98 5.72,-2.09 5.98,-2.22 6.3,-2.37 6.66,-2.53 7.07,-2.74 7.56,-2.97 8.11,-3.25 8.71,-3.56 3.75,-1.56" /></g><g
         transform="scale(1.00007,0.999932)"
         id="g264"><path
           id="path266"
           style="fill:none;stroke:#FFFFFF;stroke-width:7.49999237;stroke-linecap:butt;stroke-linejoin:miter;stroke-miterlimit:10;stroke-dasharray:none;stroke-opacity:1"
           d="m 3417.35,1192.26 0.75,0.03 1.13,0.04 1.14,0.04 1.14,0.05 1.15,0.04 1.15,0.04 1.16,0.05 1.17,0.04 1.17,0.05 1.18,0.04 1.18,0.05 1.2,0.05 1.2,0.04 1.21,0.05 1.21,0.05 1.22,0.06 1.23,0.05 1.23,0.05 1.25,0.06 1.25,0.05 1.26,0.05 1.27,0.06 1.27,0.06 1.29,0.06 1.3,0.06 1.3,0.06 1.31,0.06 1.32,0.07 1.34,0.06 1.33,0.07 1.36,0.07 1.36,0.06 1.37,0.07 1.38,0.08 1.39,0.07 1.4,0.07 1.41,0.08 1.42,0.07 1.44,0.08 1.44,0.08 1.46,0.08 1.47,0.08 1.47,0.08 1.5,0.09 1.5,0.08 1.51,0.09 1.53,0.09 1.53,0.09 1.56,0.1 1.56,0.09 1.57,0.1 1.59,0.1 1.6,0.1 1.61,0.1 1.63,0.11 1.63,0.1 1.66,0.11 1.66,0.11 1.68,0.12 1.69,0.11 1.7,0.12 1.72,0.12 1.73,0.12 1.75,0.13 1.76,0.13 1.77,0.13 1.78,0.14 1.81,0.13 1.81,0.14 1.83,0.14 1.84,0.15 1.86,0.15 1.88,0.15 1.88,0.16 1.91,0.16 1.91,0.16 1.94,0.16 1.94,0.17 1.96,0.18 1.98,0.17 2,0.18 2,0.18 2.03,0.19 2.04,0.19 2.06,0.2 2.07,0.19 2.09,0.21 2.1,0.2 2.12,0.21 2.14,0.22 2.15,0.21 2.17,0.23 2.18,0.23 2.21,0.23 2.22,0.23 2.23,0.24 2.26,0.25 2.27,0.25 2.29,0.25 2.3,0.26 2.32,0.26 2.34,0.27 2.36,0.27 2.38,0.28 2.39,0.29 2.41,0.28 2.43,0.3 2.45,0.3 2.47,0.3 2.48,0.31 2.51,0.32 2.53,0.32 2.54,0.33 2.56,0.34 2.59,0.34 2.6,0.35 2.63,0.35 2.64,0.37 2.67,0.37 2.69,0.38 2.71,0.38 2.73,0.4 2.75,0.4 2.78,0.41 2.81,0.43 2.82,0.43 2.85,0.43 2.87,0.45 2.89,0.46 2.92,0.47 2.95,0.48 2.97,0.49 2.99,0.5 3.02,0.51 3.05,0.52 3.07,0.53 3.1,0.55 3.13,0.56 3.15,0.56 3.17,0.58 3.21,0.6 3.24,0.6 3.26,0.62 3.29,0.63 3.32,0.65 3.35,0.65 3.38,0.68 3.41,0.68 3.43,0.7 3.47,0.71 3.5,0.73 3.53,0.75 3.56,0.75 3.59,0.78 3.62,0.79 3.65,0.8 3.69,0.82 3.72,0.84 3.75,0.85 3.78,0.88 3.82,0.88 3.85,0.9 3.88,0.92 3.92,0.94 3.95,0.96 3.99,0.97 4.02,0.99 4.06,1.01 4.09,1.03 4.13,1.05 4.16,1.06 4.2,1.09 4.23,1.11 4.27,1.13 4.3,1.14 4.34,1.17 4.37,1.19 4.4,1.21 4.44,1.24 4.48,1.26 4.5,1.28 4.54,1.3 4.57,1.33 4.6,1.36 4.64,1.38 4.66,1.4 4.7,1.43 4.72,1.46 4.76,1.48 4.79,1.52 4.82,1.54 4.84,1.56 4.88,1.6 4.9,1.63 4.93,1.66 4.97,1.69 5.03,1.73 5.14,1.8 5.3,1.88 5.48,1.98 5.72,2.09 5.98,2.22 6.3,2.37 6.66,2.54 7.07,2.73 7.56,2.97 8.11,3.25 8.71,3.57 3.75,1.55" /></g><path
         id="path268"
         style="fill:none;stroke:#FFFFFF;stroke-width:7.5;stroke-linecap:butt;stroke-linejoin:miter;stroke-miterlimit:10;stroke-dasharray:none;stroke-opacity:1"
         d="m 2520,1668 -172.8,355.2" /><path
         id="path270"
         style="fill:none;stroke:#FFFFFF;stroke-width:7.5;stroke-linecap:butt;stroke-linejoin:miter;stroke-miterlimit:10;stroke-dasharray:none;stroke-opacity:1"
         d="m 3333.6,1864.8 -43.2,28.8" /><path
         id="path272"
         style="fill:none;stroke:#FFFFFF;stroke-width:7.5;stroke-linecap:butt;stroke-linejoin:miter;stroke-miterlimit:10;stroke-dasharray:none;stroke-opacity:1"
         d="m 3153.6,1864.8 43.2,28.8" /><g
         transform="scale(1.00007,0.999932)"
         id="g274"><path
           id="path276"
           style="fill:none;stroke:#FFFFFF;stroke-width:7.49999237;stroke-linecap:butt;stroke-linejoin:miter;stroke-miterlimit:10;stroke-dasharray:none;stroke-opacity:1"
           d="m 3741.63,2084.64 c 0,132.32 -107.27,239.59 -239.59,239.59 -132.32,0 -239.59,-107.27 -239.59,-239.59 0,-132.32 107.27,-239.59 239.59,-239.59 132.32,0 239.59,107.27 239.59,239.59" /></g><g
         transform="scale(1.00007,0.999932)"
         id="g278"><path
           id="path280"
           style="fill:none;stroke:#FFFFFF;stroke-width:7.49999237;stroke-linecap:butt;stroke-linejoin:miter;stroke-miterlimit:10;stroke-dasharray:none;stroke-opacity:1"
           d="m 3244.7,1987.45 c 40.43,-107.05 142.91,-177.89 257.34,-177.89 151.92,0 275.08,123.16 275.08,275.08 0,151.93 -123.16,275.09 -275.08,275.09 -114.42,0 -216.89,-70.83 -257.33,-177.87" /></g><g
         transform="scale(1.00007,0.999932)"
         id="g282"><path
           id="path284"
           style="fill:none;stroke:#FFFFFF;stroke-width:7.49999237;stroke-linecap:butt;stroke-linejoin:miter;stroke-miterlimit:10;stroke-dasharray:none;stroke-opacity:1"
           d="m 3244.71,2181.86 c -40.43,107.05 -142.91,177.89 -257.34,177.89 -151.92,0 -275.08,-123.16 -275.08,-275.08 0,-151.92 123.16,-275.08 275.08,-275.08 114.42,0 216.89,70.83 257.33,177.86" /></g><g
         transform="scale(1.00007,0.999932)"
         id="g286"><path
           id="path288"
           style="fill:none;stroke:#FFFFFF;stroke-width:7.49999237;stroke-linecap:butt;stroke-linejoin:miter;stroke-miterlimit:10;stroke-dasharray:none;stroke-opacity:1"
           d="m 3226.96,2084.67 c 0,132.32 -107.27,239.59 -239.59,239.59 -132.32,0 -239.59,-107.27 -239.59,-239.59 0,-132.32 107.27,-239.59 239.59,-239.59 132.32,0 239.59,107.27 239.59,239.59" /></g><g
         transform="scale(1.00007,0.999932)"
         id="g290"><path
           id="path292"
           style="fill:none;stroke:#FFFFFF;stroke-width:7.49999237;stroke-linecap:butt;stroke-linejoin:miter;stroke-miterlimit:10;stroke-dasharray:none;stroke-opacity:1"
           d="m 2604.03,2581.67 c 0,29.41 -23.83,53.25 -53.24,53.25 -29.4,0 -53.24,-23.84 -53.24,-53.25 0,-29.4 23.84,-53.24 53.24,-53.24 29.41,0 53.24,23.84 53.24,53.24" /></g><g
         transform="scale(1.00007,0.999932)"
         id="g294"><path
           id="path296"
           style="fill:none;stroke:#FFFFFF;stroke-width:7.49999237;stroke-linecap:butt;stroke-linejoin:miter;stroke-miterlimit:10;stroke-dasharray:none;stroke-opacity:1"
           d="m 3040.61,2084.67 c 0,29.4 -23.84,53.24 -53.24,53.24 -29.41,0 -53.24,-23.84 -53.24,-53.24 0,-29.41 23.83,-53.24 53.24,-53.24 29.4,0 53.24,23.83 53.24,53.24" /></g><path
         id="path298"
         style="fill:none;stroke:#FFFFFF;stroke-width:7.5;stroke-linecap:butt;stroke-linejoin:miter;stroke-miterlimit:10;stroke-dasharray:none;stroke-opacity:1"
         d="M 2347.2,2023.2 2488.8,2316" /><path
         id="path300"
         style="fill:none;stroke:#FFFFFF;stroke-width:7.5;stroke-linecap:butt;stroke-linejoin:miter;stroke-miterlimit:10;stroke-dasharray:none;stroke-opacity:1"
         d="m 3196.8,1893.6 h 93.6" /><g
         transform="scale(1.00007,0.999932)"
         id="g302"><path
           id="path304"
           style="fill:none;stroke:#FFFFFF;stroke-width:7.49999237;stroke-linecap:butt;stroke-linejoin:miter;stroke-miterlimit:10;stroke-dasharray:none;stroke-opacity:1"
           d="m 3555.28,2084.64 c 0,29.41 -23.84,53.24 -53.24,53.24 -29.4,0 -53.24,-23.83 -53.24,-53.24 0,-29.4 23.84,-53.24 53.24,-53.24 29.4,0 53.24,23.84 53.24,53.24" /></g><path
         id="path306"
         style="fill:none;stroke:#FFFFFF;stroke-width:7.5;stroke-linecap:butt;stroke-linejoin:miter;stroke-miterlimit:10;stroke-dasharray:none;stroke-opacity:1"
         d="m 2990.4,1687.2 h 276" /><path
         id="path308"
         style="fill:none;stroke:#FFFFFF;stroke-width:7.5;stroke-linecap:butt;stroke-linejoin:miter;stroke-miterlimit:10;stroke-dasharray:none;stroke-opacity:1"
         d="m 3283.2,1192.8 h -276" /><path
         id="path310"
         style="fill:none;stroke:#FFFFFF;stroke-width:7.5;stroke-linecap:butt;stroke-linejoin:miter;stroke-miterlimit:10;stroke-dasharray:none;stroke-opacity:1"
         d="m 3141.6,1749.6 h -744" /><path
         id="path312"
         style="fill:none;stroke:#FFFFFF;stroke-width:7.5;stroke-linecap:butt;stroke-linejoin:miter;stroke-miterlimit:10;stroke-dasharray:none;stroke-opacity:1"
         d="m 3141.6,1696.8 h -744" /><path
         id="path314"
         style="fill:none;stroke:#FFFFFF;stroke-width:7.5;stroke-linecap:butt;stroke-linejoin:miter;stroke-miterlimit:10;stroke-dasharray:none;stroke-opacity:1"
         d="m 3141.6,1111.2 h -744" /><path
         id="path316"
         style="fill:none;stroke:#FFFFFF;stroke-width:7.5;stroke-linecap:butt;stroke-linejoin:miter;stroke-miterlimit:10;stroke-dasharray:none;stroke-opacity:1"
         d="m 3141.6,1164 h -744" /><path
         id="path318"
         style="fill:none;stroke:#FFFFFF;stroke-width:7.5;stroke-linecap:butt;stroke-linejoin:miter;stroke-miterlimit:10;stroke-dasharray:none;stroke-opacity:1"
         d="m 2865.6,1329.6 v 201.6" /><path
         id="path320"
         style="fill:none;stroke:#FFFFFF;stroke-width:7.5;stroke-linecap:butt;stroke-linejoin:miter;stroke-miterlimit:10;stroke-dasharray:none;stroke-opacity:1"
         d="m 3069.6,1329.6 v 201.6" /><path
         id="path322"
         style="fill:none;stroke:#FFFFFF;stroke-width:7.5;stroke-linecap:butt;stroke-linejoin:miter;stroke-miterlimit:10;stroke-dasharray:none;stroke-opacity:1"
         d="m 2479.2,1329.6 v 201.6" /><path
         id="path324"
         style="fill:none;stroke:#FFFFFF;stroke-width:7.5;stroke-linecap:butt;stroke-linejoin:miter;stroke-miterlimit:10;stroke-dasharray:none;stroke-opacity:1"
         d="m 2757.6,1384.8 v 88.8" /><path
         id="path326"
         style="fill:none;stroke:#FFFFFF;stroke-width:7.5;stroke-linecap:butt;stroke-linejoin:miter;stroke-miterlimit:10;stroke-dasharray:none;stroke-opacity:1"
         d="m 2714.4,1384.8 v 88.8" /><path
         id="path328"
         style="fill:none;stroke:#FFFFFF;stroke-width:7.5;stroke-linecap:butt;stroke-linejoin:miter;stroke-miterlimit:10;stroke-dasharray:none;stroke-opacity:1"
         d="m 2788.8,1384.8 v 88.8" /><path
         id="path330"
         style="fill:none;stroke:#FFFFFF;stroke-width:7.5;stroke-linecap:butt;stroke-linejoin:miter;stroke-miterlimit:10;stroke-dasharray:none;stroke-opacity:1"
         d="m 2834.4,1384.8 v 88.8" /><path
         id="path332"
         style="fill:none;stroke:#FFFFFF;stroke-width:7.5;stroke-linecap:butt;stroke-linejoin:miter;stroke-miterlimit:10;stroke-dasharray:none;stroke-opacity:1"
         d="m 2680.8,1329.6 v 201.6" /><g
         transform="scale(1.00007,0.999932)"
         id="g334"><path
           id="path336"
           style="fill:none;stroke:#FFFFFF;stroke-width:7.49999237;stroke-linecap:butt;stroke-linejoin:miter;stroke-miterlimit:10;stroke-dasharray:8.87364, 4.43682;stroke-dashoffset:0;stroke-opacity:1"
           d="m 2398.13,1112.16 v 638.9" /></g><path
         id="path338"
         style="fill:none;stroke:#FFFFFF;stroke-width:7.5;stroke-linecap:butt;stroke-linejoin:miter;stroke-miterlimit:10;stroke-dasharray:none;stroke-opacity:1"
         d="m 2834.4,1454.4 h 31.2" /><path
         id="path340"
         style="fill:none;stroke:#FFFFFF;stroke-width:7.5;stroke-linecap:butt;stroke-linejoin:miter;stroke-miterlimit:10;stroke-dasharray:none;stroke-opacity:1"
         d="m 2865.6,1531.2 h 204" /><path
         id="path342"
         style="fill:none;stroke:#FFFFFF;stroke-width:7.5;stroke-linecap:butt;stroke-linejoin:miter;stroke-miterlimit:10;stroke-dasharray:none;stroke-opacity:1"
         d="m 2834.4,1473.6 h -45.6" /><path
         id="path344"
         style="fill:none;stroke:#FFFFFF;stroke-width:7.5;stroke-linecap:butt;stroke-linejoin:miter;stroke-miterlimit:10;stroke-dasharray:none;stroke-opacity:1"
         d="m 2714.4,1473.6 h 43.2" /><path
         id="path346"
         style="fill:none;stroke:#FFFFFF;stroke-width:7.5;stroke-linecap:butt;stroke-linejoin:miter;stroke-miterlimit:10;stroke-dasharray:none;stroke-opacity:1"
         d="m 2714.4,1454.4 h -33.6" /><path
         id="path348"
         style="fill:none;stroke:#FFFFFF;stroke-width:7.5;stroke-linecap:butt;stroke-linejoin:miter;stroke-miterlimit:10;stroke-dasharray:none;stroke-opacity:1"
         d="M 2680.8,1531.2 H 2479.2" /><path
         id="path350"
         style="fill:none;stroke:#FFFFFF;stroke-width:7.5;stroke-linecap:butt;stroke-linejoin:miter;stroke-miterlimit:10;stroke-dasharray:none;stroke-opacity:1"
         d="m 2990.4,1687.2 50.4,127.2" /><path
         id="path352"
         style="fill:none;stroke:#FFFFFF;stroke-width:7.5;stroke-linecap:butt;stroke-linejoin:miter;stroke-miterlimit:10;stroke-dasharray:none;stroke-opacity:1"
         d="m 2551.2,1778.4 h 19.2" /><g
         transform="scale(1.00007,0.999932)"
         id="g354"><path
           id="path356"
           style="fill:none;stroke:#FFFFFF;stroke-width:7.49999237;stroke-linecap:butt;stroke-linejoin:miter;stroke-miterlimit:10;stroke-dasharray:none;stroke-opacity:1"
           d="m 2690.62,1774.87 0.03,0.01 11.45,0.92 11.05,1.03 10.59,1.11 10.07,1.2 9.5,1.26 8.86,1.33 8.17,1.38 7.52,1.42 6.86,1.46 6.24,1.47 5.64,1.48 5.07,1.47 4.51,1.46 3.97,1.43 3.48,1.39 3,1.34 2.59,1.29 2.2,1.23 1.87,1.17 1.58,1.11 1.33,1.03 1.13,0.95 0.95,0.88 0.81,0.8 0.68,0.73 0.57,0.68 0.48,0.63 0.4,0.6 0.34,0.55 0.29,0.54 0.27,0.53 0.24,0.52 0.22,0.5 0.19,0.5 0.18,0.5 0.17,0.49 0.15,0.5 0.13,0.49 0.13,0.51 0.11,0.51 0.11,0.54 0.09,0.55 0.08,0.6 0.07,0.64 0.06,0.68 0.04,0.74" /></g><g
         transform="scale(1.00007,0.999932)"
         id="g358"><path
           id="path360"
           style="fill:none;stroke:#FFFFFF;stroke-width:7.49999237;stroke-linecap:butt;stroke-linejoin:miter;stroke-miterlimit:10;stroke-dasharray:none;stroke-opacity:1"
           d="m 2571.07,1779.68 8.85,-0.01 8.65,-0.05 8.48,-0.07 8.33,-0.11 8.21,-0.15 8.11,-0.19 8.04,-0.23 8,-0.27 8.01,-0.34 8.31,-0.42 8.9,-0.56 9.79,-0.74 10.99,-0.98 12.5,-1.24 14.31,-1.58 16.43,-1.93" /></g><path
         id="path362"
         style="fill:none;stroke:#FFFFFF;stroke-width:7.5;stroke-linecap:butt;stroke-linejoin:miter;stroke-miterlimit:10;stroke-dasharray:none;stroke-opacity:1"
         d="m 2911.2,1569.6 -132,2.4" /><path
         id="path364"
         style="fill:none;stroke:#FFFFFF;stroke-width:7.5;stroke-linecap:butt;stroke-linejoin:miter;stroke-miterlimit:10;stroke-dasharray:none;stroke-opacity:1"
         d="m 2911.2,1569.6 -60,9.6" /><path
         id="path366"
         style="fill:none;stroke:#FFFFFF;stroke-width:7.5;stroke-linecap:butt;stroke-linejoin:miter;stroke-miterlimit:10;stroke-dasharray:none;stroke-opacity:1"
         d="m 2916,1596 -60,12" /><path
         id="path368"
         style="fill:none;stroke:#FFFFFF;stroke-width:7.5;stroke-linecap:butt;stroke-linejoin:miter;stroke-miterlimit:10;stroke-dasharray:none;stroke-opacity:1"
         d="m 2916,1596 h -62.4" /><g
         transform="scale(1.00007,0.999932)"
         id="g370"><path
           id="path372"
           style="fill:none;stroke:#FFFFFF;stroke-width:7.49999237;stroke-linecap:butt;stroke-linejoin:miter;stroke-miterlimit:10;stroke-dasharray:none;stroke-opacity:1"
           d="m 2856.54,1608.51 -8.08,0.2 -7.82,0.2 -7.68,0.16 -7.67,0.14 -7.8,0.11 -8.04,0.07 -8.41,0.02 -8.92,-0.03 -9.58,-0.1 -10.5,-0.21 -11.72,-0.39 -13.21,-0.61 -15.01,-0.91 -17.09,-1.25 -19.45,-1.65 -22.12,-2.11" /></g><g
         transform="scale(1.00007,0.999932)"
         id="g374"><path
           id="path376"
           style="fill:none;stroke:#FFFFFF;stroke-width:7.49999237;stroke-linecap:butt;stroke-linejoin:miter;stroke-miterlimit:10;stroke-dasharray:none;stroke-opacity:1"
           d="m 2854.96,1581.59 -8.09,0.2 -7.82,0.2 -7.67,0.17 -7.68,0.13 -7.79,0.11 -8.04,0.07 -8.41,0.02 -8.93,-0.03 -9.57,-0.1 -10.51,-0.21 -11.71,-0.39 -13.22,-0.61 -15.01,-0.91 -17.08,-1.25 -19.46,-1.65 -22.12,-2.11" /></g><path
         id="path378"
         style="fill:none;stroke:#FFFFFF;stroke-width:7.5;stroke-linecap:butt;stroke-linejoin:miter;stroke-miterlimit:10;stroke-dasharray:none;stroke-opacity:1"
         d="m 2853.6,1608 v -28.8" /><path
         id="path380"
         style="fill:none;stroke:#FFFFFF;stroke-width:7.5;stroke-linecap:butt;stroke-linejoin:miter;stroke-miterlimit:10;stroke-dasharray:none;stroke-opacity:1"
         d="M 2570.4,1778.4 H 2392.8" /><path
         id="path382"
         style="fill:none;stroke:#FFFFFF;stroke-width:7.5;stroke-linecap:butt;stroke-linejoin:miter;stroke-miterlimit:10;stroke-dasharray:none;stroke-opacity:1"
         d="m 2551.2,1082.4 h 19.2" /><g
         transform="scale(1.00007,0.999932)"
         id="g384"><path
           id="path386"
           style="fill:none;stroke:#FFFFFF;stroke-width:7.49999237;stroke-linecap:butt;stroke-linejoin:miter;stroke-miterlimit:10;stroke-dasharray:none;stroke-opacity:1"
           d="m 2690.62,1088.34 h 0.03 l 11.45,-0.93 11.05,-1.02 10.59,-1.12 10.07,-1.19 9.5,-1.26 8.86,-1.33 8.17,-1.39 7.52,-1.42 6.86,-1.45 6.24,-1.48 5.64,-1.47 5.07,-1.48 4.51,-1.45 3.97,-1.43 3.48,-1.39 3,-1.34 2.59,-1.29 2.2,-1.24 1.87,-1.17 1.58,-1.1 1.33,-1.04 1.13,-0.95 0.95,-0.88 0.81,-0.8 0.68,-0.73 0.57,-0.68 0.48,-0.63 0.4,-0.59 0.34,-0.56 0.29,-0.54 0.27,-0.53 0.24,-0.51 0.22,-0.51 0.19,-0.5 0.18,-0.49 0.17,-0.5 0.15,-0.49 0.13,-0.5 0.13,-0.5 0.11,-0.51 0.11,-0.54 0.09,-0.56 0.08,-0.6 0.07,-0.63 0.06,-0.68 0.04,-0.74" /></g><g
         transform="scale(1.00007,0.999932)"
         id="g388"><path
           id="path390"
           style="fill:none;stroke:#FFFFFF;stroke-width:7.49999237;stroke-linecap:butt;stroke-linejoin:miter;stroke-miterlimit:10;stroke-dasharray:none;stroke-opacity:1"
           d="m 2571.07,1083.53 8.85,0.02 8.65,0.04 8.48,0.08 8.33,0.11 8.21,0.14 8.11,0.19 8.04,0.23 8,0.28 8.01,0.33 8.31,0.42 8.9,0.56 9.79,0.75 10.99,0.97 12.5,1.25 14.31,1.57 16.43,1.94" /></g><path
         id="path392"
         style="fill:none;stroke:#FFFFFF;stroke-width:7.5;stroke-linecap:butt;stroke-linejoin:miter;stroke-miterlimit:10;stroke-dasharray:none;stroke-opacity:1"
         d="m 2916,1264.8 h -62.4" /><path
         id="path394"
         style="fill:none;stroke:#FFFFFF;stroke-width:7.5;stroke-linecap:butt;stroke-linejoin:miter;stroke-miterlimit:10;stroke-dasharray:none;stroke-opacity:1"
         d="m 2916,1264.8 -60,-12" /><path
         id="path396"
         style="fill:none;stroke:#FFFFFF;stroke-width:7.5;stroke-linecap:butt;stroke-linejoin:miter;stroke-miterlimit:10;stroke-dasharray:none;stroke-opacity:1"
         d="m 2911.2,1291.2 -60,-12" /><path
         id="path398"
         style="fill:none;stroke:#FFFFFF;stroke-width:7.5;stroke-linecap:butt;stroke-linejoin:miter;stroke-miterlimit:10;stroke-dasharray:none;stroke-opacity:1"
         d="m 2911.2,1291.2 -132,-2.4" /><path
         id="path400"
         style="fill:none;stroke:#FFFFFF;stroke-width:7.5;stroke-linecap:butt;stroke-linejoin:miter;stroke-miterlimit:10;stroke-dasharray:none;stroke-opacity:1"
         d="m 2834.4,1406.4 h 31.2" /><path
         id="path402"
         style="fill:none;stroke:#FFFFFF;stroke-width:7.5;stroke-linecap:butt;stroke-linejoin:miter;stroke-miterlimit:10;stroke-dasharray:none;stroke-opacity:1"
         d="m 2865.6,1430.4 h -76.8" /><path
         id="path404"
         style="fill:none;stroke:#FFFFFF;stroke-width:7.5;stroke-linecap:butt;stroke-linejoin:miter;stroke-miterlimit:10;stroke-dasharray:none;stroke-opacity:1"
         d="m 2865.6,1430.4 h 204" /><path
         id="path406"
         style="fill:none;stroke:#FFFFFF;stroke-width:7.5;stroke-linecap:butt;stroke-linejoin:miter;stroke-miterlimit:10;stroke-dasharray:none;stroke-opacity:1"
         d="m 2865.6,1329.6 h 204" /><path
         id="path408"
         style="fill:none;stroke:#FFFFFF;stroke-width:7.5;stroke-linecap:butt;stroke-linejoin:miter;stroke-miterlimit:10;stroke-dasharray:none;stroke-opacity:1"
         d="m 2853.6,1252.8 v 28.8" /><g
         transform="scale(1.00007,0.999932)"
         id="g410"><path
           id="path412"
           style="fill:none;stroke:#FFFFFF;stroke-width:7.49999237;stroke-linecap:butt;stroke-linejoin:miter;stroke-miterlimit:10;stroke-dasharray:none;stroke-opacity:1"
           d="m 2854.96,1281.63 -8.09,-0.21 -7.82,-0.19 -7.67,-0.17 -7.68,-0.14 -7.79,-0.11 -8.04,-0.07 -8.41,-0.02 -8.93,0.03 -9.57,0.1 -10.51,0.21 -11.71,0.39 -13.22,0.62 -15.01,0.9 -17.08,1.25 -19.46,1.65 -22.12,2.12" /></g><g
         transform="scale(1.00007,0.999932)"
         id="g414"><path
           id="path416"
           style="fill:none;stroke:#FFFFFF;stroke-width:7.49999237;stroke-linecap:butt;stroke-linejoin:miter;stroke-miterlimit:10;stroke-dasharray:none;stroke-opacity:1"
           d="m 2856.54,1254.71 -8.08,-0.21 -7.82,-0.19 -7.68,-0.17 -7.67,-0.14 -7.8,-0.11 -8.04,-0.06 -8.41,-0.03 -8.92,0.03 -9.58,0.1 -10.5,0.22 -11.72,0.38 -13.21,0.62 -15.01,0.9 -17.09,1.25 -19.45,1.65 -22.12,2.12" /></g><path
         id="path418"
         style="fill:none;stroke:#FFFFFF;stroke-width:7.5;stroke-linecap:butt;stroke-linejoin:miter;stroke-miterlimit:10;stroke-dasharray:none;stroke-opacity:1"
         d="m 2834.4,1384.8 h -45.6" /><path
         id="path420"
         style="fill:none;stroke:#FFFFFF;stroke-width:7.5;stroke-linecap:butt;stroke-linejoin:miter;stroke-miterlimit:10;stroke-dasharray:none;stroke-opacity:1"
         d="m 2714.4,1384.8 h 43.2" /><path
         id="path422"
         style="fill:none;stroke:#FFFFFF;stroke-width:7.5;stroke-linecap:butt;stroke-linejoin:miter;stroke-miterlimit:10;stroke-dasharray:none;stroke-opacity:1"
         d="m 2714.4,1406.4 h -33.6" /><path
         id="path424"
         style="fill:none;stroke:#FFFFFF;stroke-width:7.5;stroke-linecap:butt;stroke-linejoin:miter;stroke-miterlimit:10;stroke-dasharray:none;stroke-opacity:1"
         d="m 2680.8,1430.4 h 76.8" /><path
         id="path426"
         style="fill:none;stroke:#FFFFFF;stroke-width:7.5;stroke-linecap:butt;stroke-linejoin:miter;stroke-miterlimit:10;stroke-dasharray:none;stroke-opacity:1"
         d="M 2680.8,1329.6 H 2479.2" /><path
         id="path428"
         style="fill:none;stroke:#FFFFFF;stroke-width:7.5;stroke-linecap:butt;stroke-linejoin:miter;stroke-miterlimit:10;stroke-dasharray:none;stroke-opacity:1"
         d="m 3007.2,1192.8 60,-151.2" /><path
         id="path430"
         style="fill:none;stroke:#FFFFFF;stroke-width:7.5;stroke-linecap:butt;stroke-linejoin:miter;stroke-miterlimit:10;stroke-dasharray:none;stroke-opacity:1"
         d="M 2570.4,1082.4 H 2392.8" /><g
         transform="scale(1.00007,0.999932)"
         id="g432"><path
           id="path434"
           style="fill:none;stroke:#FFFFFF;stroke-width:7.49999237;stroke-linecap:butt;stroke-linejoin:miter;stroke-miterlimit:10;stroke-dasharray:none;stroke-opacity:1"
           d="m 3322.03,1431.61 v 0.81 0.68 l -0.01,0.59 -0.01,0.51 -0.02,0.47 -0.03,0.45 -0.04,0.45 -0.05,0.49 -0.07,0.55 -0.09,0.6 -0.14,0.66 -0.19,0.72 -0.26,0.78 -0.34,0.83 -0.43,0.88 -0.54,0.93 -0.66,0.99 -0.79,1.02 -0.92,1.06 -1.08,1.08 -1.24,1.08 -1.41,1.08 -1.59,1.08 -1.77,1.05 -1.97,1.02 -2.1,0.97 -2.19,0.93 -2.2,0.88 -2.16,0.8 -2.06,0.74 -1.89,0.66 -1.68,0.57" /></g><g
         transform="scale(1.00007,0.999932)"
         id="g436"><path
           id="path438"
           style="fill:none;stroke:#FFFFFF;stroke-width:7.49999237;stroke-linecap:butt;stroke-linejoin:miter;stroke-miterlimit:10;stroke-dasharray:none;stroke-opacity:1"
           d="m 3571.52,1431.61 v 10.16 9.38 l 0.03,8.75 0.05,8.24 0.08,7.88 0.12,7.66 0.17,7.58 0.22,7.63 0.28,7.79 0.37,7.9 0.48,7.95 0.61,7.91 0.77,7.79 0.94,7.61 1.13,7.34 1.36,7 1.59,6.6 1.84,6.19 2.09,5.79 2.35,5.39 2.6,5.01 2.86,4.64 3.13,4.26 3.4,3.9 3.66,3.55 3.88,3.22 4.05,2.89 4.16,2.6 4.23,2.32 4.23,2.06 4.2,1.81 4.09,1.58 3.95,1.38 3.81,1.19 3.65,1.01 3.52,0.87 3.37,0.74 3.24,0.62 3.09,0.53 2.96,0.46 2.83,0.41 2.71,0.36 2.61,0.32 2.53,0.29 2.44,0.26 2.4,0.25 2.36,0.24 2.33,0.24" /></g><g
         transform="scale(1.00007,0.999932)"
         id="g440"><path
           id="path442"
           style="fill:none;stroke:#FFFFFF;stroke-width:7.49999237;stroke-linecap:butt;stroke-linejoin:miter;stroke-miterlimit:10;stroke-dasharray:8.87364, 4.43682;stroke-dashoffset:0;stroke-opacity:1"
           d="m 3143.52,1112.16 v 638.9" /></g><g
         transform="scale(1.00007,0.999932)"
         id="g444"><path
           id="path446"
           style="fill:none;stroke:#FFFFFF;stroke-width:7.49999237;stroke-linecap:butt;stroke-linejoin:miter;stroke-miterlimit:10;stroke-dasharray:none;stroke-opacity:1"
           d="m 3384.92,1669.69 -2.19,-1.42 -3.21,-2.34 -2.67,-2.18 -2.25,-2.08 -1.94,-2.02 -1.73,-1.99 -1.62,-1.99 -1.52,-1.98 -1.43,-1.97 -1.33,-1.92 -1.22,-1.86 -1.13,-1.79 -1.02,-1.7 -0.91,-1.59 -0.31,-0.54" /></g><g
         transform="scale(1.00007,0.999932)"
         id="g448"><path
           id="path450"
           style="fill:none;stroke:#FFFFFF;stroke-width:7.49999237;stroke-linecap:butt;stroke-linejoin:miter;stroke-miterlimit:10;stroke-dasharray:none;stroke-opacity:1"
           d="m 3433.07,1665.1 -3.82,-0.46 -1.71,-0.21 -1.45,-0.2 -1.26,-0.19 -1.11,-0.18 -1.04,-0.19 -1.01,-0.2 -1.05,-0.22 -1.12,-0.25 -1.21,-0.29 -1.29,-0.33 -1.35,-0.37 -1.42,-0.41 -1.47,-0.45 -1.51,-0.51 -1.55,-0.57 -1.58,-0.61 -1.6,-0.67 -1.59,-0.72 -1.59,-0.74 -1.55,-0.78 -1.52,-0.8 -1.46,-0.81 -0.3,-0.18" /></g><path
         id="path452"
         style="fill:none;stroke:#FFFFFF;stroke-width:7.5;stroke-linecap:butt;stroke-linejoin:miter;stroke-miterlimit:10;stroke-dasharray:none;stroke-opacity:1"
         d="m 3266.4,1687.2 67.2,177.6" /><path
         id="path454"
         style="fill:none;stroke:#FFFFFF;stroke-width:7.5;stroke-linecap:butt;stroke-linejoin:miter;stroke-miterlimit:10;stroke-dasharray:none;stroke-opacity:1"
         d="m 3415.2,1670.4 h -45.6" /><g
         transform="scale(1.00007,0.999932)"
         id="g456"><path
           id="path458"
           style="fill:none;stroke:#FFFFFF;stroke-width:7.49999237;stroke-linecap:butt;stroke-linejoin:miter;stroke-miterlimit:10;stroke-dasharray:none;stroke-opacity:1"
           d="m 3413.78,1665.1 7.41,-0.1 7.63,-0.13 7.78,-0.12 7.94,-0.15 8.08,-0.15 8.21,-0.17 8.34,-0.18 8.54,-0.19 8.8,-0.24 9.17,-0.27 9.59,-0.31 10.09,-0.38 10.68,-0.45 11.34,-0.52 12.08,-0.61 12.86,-0.72 13.7,-0.87 6.15,-0.44" /></g><path
         id="path460"
         style="fill:none;stroke:#FFFFFF;stroke-width:7.5;stroke-linecap:butt;stroke-linejoin:miter;stroke-miterlimit:10;stroke-dasharray:none;stroke-opacity:1"
         d="m 3444,1629.6 h 31.2" /><path
         id="path462"
         style="fill:none;stroke:#FFFFFF;stroke-width:7.5;stroke-linecap:butt;stroke-linejoin:miter;stroke-miterlimit:10;stroke-dasharray:none;stroke-opacity:1"
         d="m 3420,1610.4 h -19.2" /><path
         id="path464"
         style="fill:none;stroke:#FFFFFF;stroke-width:7.5;stroke-linecap:butt;stroke-linejoin:miter;stroke-miterlimit:10;stroke-dasharray:none;stroke-opacity:1"
         d="m 3444,1629.6 h -45.6" /><g
         transform="scale(1.00007,0.999932)"
         id="g466"><path
           id="path468"
           style="fill:none;stroke:#FFFFFF;stroke-width:7.49999237;stroke-linecap:butt;stroke-linejoin:miter;stroke-miterlimit:10;stroke-dasharray:none;stroke-opacity:1"
           d="m 3360.44,1642.32 -1.02,-2.1 -0.88,-1.9 -0.74,-1.72 -0.6,-1.58 -0.49,-1.46 -0.36,-1.38 -0.26,-1.32 -0.16,-1.3 -0.07,-1.3 0.04,-1.29 0.18,-1.29 0.34,-1.27 0.51,-1.23 0.72,-1.21 0.95,-1.16 1.19,-1.11 1.46,-1.05 1.72,-0.98 1.97,-0.92 2.21,-0.83 2.45,-0.76 2.66,-0.66 2.89,-0.58 3.08,-0.47 3.3,-0.37 3.62,-0.28 4.06,-0.2 4.61,-0.14 5.3,-0.08 6.09,-0.04 7.02,-0.02 h 8.07" /></g><g
         transform="scale(1.00007,0.999932)"
         id="g470"><path
           id="path472"
           style="fill:none;stroke:#FFFFFF;stroke-width:7.49999237;stroke-linecap:butt;stroke-linejoin:miter;stroke-miterlimit:10;stroke-dasharray:none;stroke-opacity:1"
           d="m 3402.25,1632.06 -2.01,0.35 -1.77,0.36 -1.57,0.37 -1.37,0.36 -1.2,0.38 -1.06,0.36 -0.93,0.37 -0.83,0.36 -0.74,0.36 -0.67,0.36 -0.59,0.36 -0.52,0.35 -0.47,0.35 -0.41,0.35 -0.35,0.34 -0.31,0.35 -0.27,0.34 -0.23,0.35 -0.18,0.35 -0.15,0.36 -0.11,0.38 -0.08,0.39 -0.04,0.42 v 0.43 l 0.03,0.47 0.06,0.48 0.09,0.5 0.12,0.52 0.16,0.51 0.17,0.51 0.21,0.51 0.23,0.5 0.26,0.47 0.28,0.47 0.31,0.46 0.35,0.46 0.38,0.45 0.43,0.47 0.46,0.49 0.52,0.5 0.56,0.52 0.59,0.54 0.64,0.56 0.66,0.56 0.67,0.55 0.69,0.56 0.69,0.53 0.68,0.51" /></g><g
         transform="scale(1.00007,0.999932)"
         id="g474"><path
           id="path476"
           style="fill:none;stroke:#FFFFFF;stroke-width:7.49999237;stroke-linecap:butt;stroke-linejoin:miter;stroke-miterlimit:10;stroke-dasharray:none;stroke-opacity:1"
           d="m 3419.7,1631.33 -1.85,0.01 h -1.87 l -1.91,0.02 -1.92,0.04 -1.93,0.05 -1.95,0.09 -1.96,0.12 -1.96,0.17 -1.96,0.21 -0.14,0.02" /></g><g
         transform="scale(1.00007,0.999932)"
         id="g478"><path
           id="path480"
           style="fill:none;stroke:#FFFFFF;stroke-width:7.49999237;stroke-linecap:butt;stroke-linejoin:miter;stroke-miterlimit:10;stroke-dasharray:none;stroke-opacity:1"
           d="m 3398.51,1654.76 -0.84,-0.52 -0.75,-0.47 -0.67,-0.44 -0.62,-0.42" /></g><g
         transform="scale(1.00007,0.999932)"
         id="g482"><path
           id="path484"
           style="fill:none;stroke:#FFFFFF;stroke-width:7.49999237;stroke-linecap:butt;stroke-linejoin:miter;stroke-miterlimit:10;stroke-dasharray:none;stroke-opacity:1"
           d="m 3683.13,1643.98 1.76,0.11" /></g><g
         transform="scale(1.00007,0.999932)"
         id="g486"><path
           id="path488"
           style="fill:none;stroke:#FFFFFF;stroke-width:7.49999237;stroke-linecap:butt;stroke-linejoin:miter;stroke-miterlimit:10;stroke-dasharray:none;stroke-opacity:1"
           d="m 3635.93,1650.22 0.93,0.12 1.08,0.13 1.02,0.14 0.94,0.12 0.87,0.12 0.81,0.11 0.74,0.11 0.37,0.05" /></g><g
         transform="scale(1.00007,0.999932)"
         id="g490"><path
           id="path492"
           style="fill:none;stroke:#FFFFFF;stroke-width:7.49999237;stroke-linecap:butt;stroke-linejoin:miter;stroke-miterlimit:10;stroke-dasharray:none;stroke-opacity:1"
           d="m 3683.13,1643.98 -4.9,-0.36 -6.19,-0.49 -6.69,-0.58 -7.21,-0.65 -7.67,-0.76 -8.02,-0.86 -8.28,-0.99 -0.51,-0.07" /></g><g
         transform="scale(1.00007,0.999932)"
         id="g494"><path
           id="path496"
           style="fill:none;stroke:#FFFFFF;stroke-width:7.49999237;stroke-linecap:butt;stroke-linejoin:miter;stroke-miterlimit:10;stroke-dasharray:none;stroke-opacity:1"
           d="m 3635.93,1650.22 -1.48,-0.19 -1.44,-0.18 -1.41,-0.18 -1.42,-0.17 -1.45,-0.17 -1.5,-0.17 -1.59,-0.17 -1.69,-0.17 -1.82,-0.17 -1.94,-0.17 -0.31,-0.02" /></g><g
         transform="scale(1.00007,0.999932)"
         id="g498"><path
           id="path500"
           style="fill:none;stroke:#FFFFFF;stroke-width:7.49999237;stroke-linecap:butt;stroke-linejoin:miter;stroke-miterlimit:10;stroke-dasharray:none;stroke-opacity:1"
           d="m 3541.79,1636.66 1.16,0.22 1.13,0.21 1.12,0.21 1.15,0.22 1.18,0.24 1.27,0.25 1.38,0.27 1.51,0.3 1.66,0.32 1.83,0.36 1.99,0.37 2.15,0.41 2.3,0.43 2.46,0.44 2.62,0.47 2.77,0.48 2.92,0.5 3.06,0.5 3.18,0.51 3.3,0.51 3.39,0.52 3.48,0.5 3.55,0.49 3.62,0.47 3.65,0.45 3.64,0.43 3.6,0.41 3.49,0.37 3.33,0.34 3.14,0.31 2.88,0.27 2.59,0.23" /></g><g
         transform="scale(1.00007,0.999932)"
         id="g502"><path
           id="path504"
           style="fill:none;stroke:#FFFFFF;stroke-width:7.49999237;stroke-linecap:butt;stroke-linejoin:miter;stroke-miterlimit:10;stroke-dasharray:none;stroke-opacity:1"
           d="m 3633.66,1639.22 -3.12,-0.42 -2.83,-0.4 -2.59,-0.37 -2.42,-0.36 -2.32,-0.35 -2.27,-0.36 -2.3,-0.38 -2.37,-0.39 -2.52,-0.42 -2.66,-0.46 -2.8,-0.48 -2.95,-0.52 -3.09,-0.54 -3.23,-0.58 -3.36,-0.61 -3.5,-0.64 -3.64,-0.67 -3.77,-0.7 -3.89,-0.73 -4.03,-0.76 -4.14,-0.79 -4.27,-0.81 -4.38,-0.84 -4.5,-0.87 -4.59,-0.89 -4.64,-0.9 -4.62,-0.9 -4.53,-0.88 -4.38,-0.86 -4.15,-0.8 -3.86,-0.75 -3.51,-0.67 -3.12,-0.59 -2.81,-0.53 -2.61,-0.47 -2.53,-0.44 -2.56,-0.43 -2.71,-0.43 -2.96,-0.46 -3.34,-0.5" /></g><g
         transform="scale(1.00007,0.999932)"
         id="g506"><path
           id="path508"
           style="fill:none;stroke:#FFFFFF;stroke-width:7.49999237;stroke-linecap:butt;stroke-linejoin:miter;stroke-miterlimit:10;stroke-dasharray:none;stroke-opacity:1"
           d="m 3499.79,1615.27 -2.38,-0.31 -4.81,-0.56 -4.79,-0.46 -4.83,-0.39 -4.93,-0.31 -5.09,-0.25 -5.33,-0.2 -5.59,-0.15 -5.82,-0.12 -5.95,-0.08 -6.01,-0.06 -6,-0.03 -5.9,-0.02 -5.73,-0.01 h -5.49" /></g><g
         transform="scale(1.00007,0.999932)"
         id="g510"><path
           id="path512"
           style="fill:none;stroke:#FFFFFF;stroke-width:7.49999237;stroke-linecap:butt;stroke-linejoin:miter;stroke-miterlimit:10;stroke-dasharray:none;stroke-opacity:1"
           d="m 3541.79,1636.66 -0.38,-0.07 -3.61,-0.6 -3.75,-0.57 -3.85,-0.53 -3.92,-0.51 -3.97,-0.46 -3.99,-0.43 -3.97,-0.4 -3.93,-0.36 -3.88,-0.32 -3.88,-0.28 -3.96,-0.24 -4.12,-0.19 -4.35,-0.16 -4.66,-0.11 -5.05,-0.07 -5.5,-0.03" /></g><g
         transform="scale(1.00007,0.999932)"
         id="g514"><path
           id="path516"
           style="fill:none;stroke:#FFFFFF;stroke-width:7.49999237;stroke-linecap:butt;stroke-linejoin:miter;stroke-miterlimit:10;stroke-dasharray:none;stroke-opacity:1"
           d="m 3415.46,1669.84 -7.95,0.02 -7.05,0.1 -6.33,0.27 -5.76,0.52 -5.36,0.86 -5.12,1.29 -5.05,1.8 -5.14,2.39 -5.36,3.04 -5.59,3.62 -5.77,4.13 -5.93,4.52 -6.06,4.84 -6.16,5.06 -6.22,5.19 -6.25,5.23 -6.29,5.19 -6.45,5.11 -6.81,5.01 -7.33,4.91 -8.02,4.77 -8.88,4.61 -9.93,4.45 -11.15,4.24 -12.51,4.02 -13.95,3.73 -15.42,3.37 -16.96,2.92 -18.52,2.41 -20.15,1.81 -21.82,1.14 -23.52,0.4" /></g><g
         transform="scale(1.00007,0.999932)"
         id="g518"><path
           id="path520"
           style="fill:none;stroke:#FFFFFF;stroke-width:7.49999237;stroke-linecap:butt;stroke-linejoin:miter;stroke-miterlimit:10;stroke-dasharray:none;stroke-opacity:1"
           d="m 3322.03,1431.61 v -0.81 -0.69 l -0.01,-0.58 -0.01,-0.52 -0.02,-0.46 -0.03,-0.45 -0.04,-0.46 -0.05,-0.49 -0.07,-0.54 -0.09,-0.61 -0.14,-0.66 -0.19,-0.72 -0.26,-0.77 -0.34,-0.83 -0.43,-0.88 -0.54,-0.94 -0.66,-0.98 -0.79,-1.03 -0.92,-1.06 -1.08,-1.07 -1.24,-1.09 -1.41,-1.08 -1.59,-1.07 -1.77,-1.05 -1.97,-1.02 -2.1,-0.98 -2.19,-0.93 -2.2,-0.87 -2.16,-0.81 -2.06,-0.74 -1.89,-0.65 -1.68,-0.57" /></g><g
         transform="scale(1.00007,0.999932)"
         id="g522"><path
           id="path524"
           style="fill:none;stroke:#FFFFFF;stroke-width:7.49999237;stroke-linecap:butt;stroke-linejoin:miter;stroke-miterlimit:10;stroke-dasharray:none;stroke-opacity:1"
           d="m 3384.92,1193.52 -2.19,1.43 -3.21,2.33 -2.67,2.19 -2.25,2.08 -1.94,2.01 -1.73,1.99 -1.62,1.99 -1.52,1.99 -1.43,1.96 -1.33,1.92 -1.22,1.87 -1.13,1.79 -1.02,1.7 -0.91,1.58 -0.31,0.55" /></g><g
         transform="scale(1.00007,0.999932)"
         id="g526"><path
           id="path528"
           style="fill:none;stroke:#FFFFFF;stroke-width:7.49999237;stroke-linecap:butt;stroke-linejoin:miter;stroke-miterlimit:10;stroke-dasharray:none;stroke-opacity:1"
           d="m 3433.07,1198.11 -3.82,0.46 -1.71,0.22 -1.45,0.19 -1.26,0.19 -1.11,0.18 -1.04,0.19 -1.01,0.2 -1.05,0.23 -1.12,0.25 -1.21,0.29 -1.29,0.33 -1.35,0.36 -1.42,0.41 -1.47,0.46 -1.51,0.51 -1.55,0.56 -1.58,0.62 -1.6,0.67 -1.59,0.71 -1.59,0.75 -1.55,0.77 -1.52,0.8 -1.46,0.82 -0.3,0.18" /></g><g
         transform="scale(1.00007,0.999932)"
         id="g530"><path
           id="path532"
           style="fill:none;stroke:#FFFFFF;stroke-width:7.49999237;stroke-linecap:butt;stroke-linejoin:miter;stroke-miterlimit:10;stroke-dasharray:none;stroke-opacity:1"
           d="m 3398.51,1208.46 -0.84,0.51 -0.75,0.48 -0.67,0.44 -0.62,0.41" /></g><path
         id="path534"
         style="fill:none;stroke:#FFFFFF;stroke-width:7.5;stroke-linecap:butt;stroke-linejoin:miter;stroke-miterlimit:10;stroke-dasharray:none;stroke-opacity:1"
         d="m 3415.2,1190.4 h -45.6" /><path
         id="path536"
         style="fill:none;stroke:#FFFFFF;stroke-width:7.5;stroke-linecap:butt;stroke-linejoin:miter;stroke-miterlimit:10;stroke-dasharray:none;stroke-opacity:1"
         d="m 3420,1250.4 h -19.2" /><path
         id="path538"
         style="fill:none;stroke:#FFFFFF;stroke-width:7.5;stroke-linecap:butt;stroke-linejoin:miter;stroke-miterlimit:10;stroke-dasharray:none;stroke-opacity:1"
         d="m 3444,1231.2 h 31.2" /><path
         id="path540"
         style="fill:none;stroke:#FFFFFF;stroke-width:7.5;stroke-linecap:butt;stroke-linejoin:miter;stroke-miterlimit:10;stroke-dasharray:none;stroke-opacity:1"
         d="m 3444,1231.2 h -45.6" /><g
         transform="scale(1.00007,0.999932)"
         id="g542"><path
           id="path544"
           style="fill:none;stroke:#FFFFFF;stroke-width:7.49999237;stroke-linecap:butt;stroke-linejoin:miter;stroke-miterlimit:10;stroke-dasharray:none;stroke-opacity:1"
           d="m 3419.7,1231.88 h -1.85 l -1.87,-0.01 -1.91,-0.02 -1.92,-0.03 -1.93,-0.06 -1.95,-0.09 -1.96,-0.12 -1.96,-0.16 -1.96,-0.21 -0.14,-0.02" /></g><g
         transform="scale(1.00007,0.999932)"
         id="g546"><path
           id="path548"
           style="fill:none;stroke:#FFFFFF;stroke-width:7.49999237;stroke-linecap:butt;stroke-linejoin:miter;stroke-miterlimit:10;stroke-dasharray:none;stroke-opacity:1"
           d="m 3360.44,1220.9 -1.02,2.1 -0.88,1.9 -0.74,1.72 -0.6,1.58 -0.49,1.46 -0.36,1.38 -0.26,1.32 -0.16,1.3 -0.07,1.29 0.04,1.3 0.18,1.28 0.34,1.27 0.51,1.24 0.72,1.2 0.95,1.16 1.19,1.11 1.46,1.05 1.72,0.99 1.97,0.91 2.21,0.84 2.45,0.75 2.66,0.67 2.89,0.58 3.08,0.47 3.3,0.37 3.62,0.28 4.06,0.2 4.61,0.13 5.3,0.08 6.09,0.04 7.02,0.02 h 8.07" /></g><g
         transform="scale(1.00007,0.999932)"
         id="g550"><path
           id="path552"
           style="fill:none;stroke:#FFFFFF;stroke-width:7.49999237;stroke-linecap:butt;stroke-linejoin:miter;stroke-miterlimit:10;stroke-dasharray:none;stroke-opacity:1"
           d="m 3402.25,1231.16 -2.01,-0.36 -1.77,-0.36 -1.57,-0.36 -1.37,-0.37 -1.2,-0.37 -1.06,-0.37 -0.93,-0.37 -0.83,-0.36 -0.74,-0.36 -0.67,-0.36 -0.59,-0.35 -0.52,-0.35 -0.47,-0.35 -0.41,-0.35 -0.35,-0.35 -0.31,-0.34 -0.27,-0.35 -0.23,-0.34 -0.18,-0.36 -0.15,-0.36 -0.11,-0.37 -0.08,-0.4 -0.04,-0.41 v -0.44 l 0.03,-0.46 0.06,-0.49 0.09,-0.5 0.12,-0.51 0.16,-0.51 0.17,-0.52 0.21,-0.51 0.23,-0.49 0.26,-0.48 0.28,-0.46 0.31,-0.47 0.35,-0.45 0.38,-0.46 0.43,-0.47 0.46,-0.48 0.52,-0.5 0.56,-0.53 0.59,-0.54 0.64,-0.55 0.66,-0.56 0.67,-0.56 0.69,-0.55 0.69,-0.53 0.68,-0.52" /></g><g
         transform="scale(1.00007,0.999932)"
         id="g554"><path
           id="path556"
           style="fill:none;stroke:#FFFFFF;stroke-width:7.49999237;stroke-linecap:butt;stroke-linejoin:miter;stroke-miterlimit:10;stroke-dasharray:none;stroke-opacity:1"
           d="m 3683.13,1219.23 -4.9,0.36 -6.19,0.5 -6.69,0.57 -7.21,0.66 -7.67,0.75 -8.02,0.86 -8.28,0.99 -0.51,0.07" /></g><g
         transform="scale(1.00007,0.999932)"
         id="g558"><path
           id="path560"
           style="fill:none;stroke:#FFFFFF;stroke-width:7.49999237;stroke-linecap:butt;stroke-linejoin:miter;stroke-miterlimit:10;stroke-dasharray:none;stroke-opacity:1"
           d="m 3635.93,1213 -1.48,0.18 -1.44,0.19 -1.41,0.18 -1.42,0.17 -1.45,0.17 -1.5,0.16 -1.59,0.17 -1.69,0.17 -1.82,0.17 -1.94,0.17 -0.31,0.03" /></g><g
         transform="scale(1.00007,0.999932)"
         id="g562"><path
           id="path564"
           style="fill:none;stroke:#FFFFFF;stroke-width:7.49999237;stroke-linecap:butt;stroke-linejoin:miter;stroke-miterlimit:10;stroke-dasharray:none;stroke-opacity:1"
           d="m 3635.93,1213 0.93,-0.12 1.08,-0.14 1.02,-0.13 0.94,-0.13 0.87,-0.12 0.81,-0.11 0.74,-0.1 0.37,-0.06" /></g><g
         transform="scale(1.00007,0.999932)"
         id="g566"><path
           id="path568"
           style="fill:none;stroke:#FFFFFF;stroke-width:7.49999237;stroke-linecap:butt;stroke-linejoin:miter;stroke-miterlimit:10;stroke-dasharray:none;stroke-opacity:1"
           d="m 3683.13,1219.23 1.76,-0.1" /></g><g
         transform="scale(1.00007,0.999932)"
         id="g570"><path
           id="path572"
           style="fill:none;stroke:#FFFFFF;stroke-width:7.49999237;stroke-linecap:butt;stroke-linejoin:miter;stroke-miterlimit:10;stroke-dasharray:none;stroke-opacity:1"
           d="m 3571.52,1431.61 v -10.16 -9.39 l 0.03,-8.74 0.05,-8.25 0.08,-7.88 0.12,-7.66 0.17,-7.58 0.22,-7.63 0.28,-7.79 0.37,-7.9 0.48,-7.95 0.61,-7.9 0.77,-7.8 0.94,-7.61 1.13,-7.34 1.36,-7 1.59,-6.6 1.84,-6.19 2.09,-5.79 2.35,-5.39 2.6,-5.01 2.86,-4.63 3.13,-4.26 3.4,-3.9 3.66,-3.55 3.88,-3.22 4.05,-2.9 4.16,-2.6 4.23,-2.32 4.23,-2.05 4.2,-1.81 4.09,-1.59 3.95,-1.37 3.81,-1.19 3.65,-1.02 3.52,-0.86 3.37,-0.74 3.24,-0.62 3.09,-0.54 2.96,-0.46 2.83,-0.4 2.71,-0.37 2.61,-0.32 2.53,-0.29 2.44,-0.26 2.4,-0.25 2.36,-0.24 2.33,-0.23" /></g><g
         transform="scale(1.00007,0.999932)"
         id="g574"><path
           id="path576"
           style="fill:none;stroke:#FFFFFF;stroke-width:7.49999237;stroke-linecap:butt;stroke-linejoin:miter;stroke-miterlimit:10;stroke-dasharray:none;stroke-opacity:1"
           d="m 3541.79,1226.55 1.16,-0.21 1.13,-0.21 1.12,-0.22 1.15,-0.22 1.18,-0.24 1.27,-0.25 1.38,-0.27 1.51,-0.29 1.66,-0.33 1.83,-0.35 1.99,-0.38 2.15,-0.4 2.3,-0.43 2.46,-0.45 2.62,-0.46 2.77,-0.48 2.92,-0.5 3.06,-0.51 3.18,-0.51 3.3,-0.51 3.39,-0.51 3.48,-0.5 3.55,-0.49 3.62,-0.47 3.65,-0.46 3.64,-0.43 3.6,-0.4 3.49,-0.37 3.33,-0.34 3.14,-0.31 2.88,-0.27 2.59,-0.23" /></g><g
         transform="scale(1.00007,0.999932)"
         id="g578"><path
           id="path580"
           style="fill:none;stroke:#FFFFFF;stroke-width:7.49999237;stroke-linecap:butt;stroke-linejoin:miter;stroke-miterlimit:10;stroke-dasharray:none;stroke-opacity:1"
           d="m 3633.66,1223.99 -3.12,0.42 -2.83,0.4 -2.59,0.37 -2.42,0.36 -2.32,0.36 -2.27,0.36 -2.3,0.37 -2.37,0.39 -2.52,0.43 -2.66,0.45 -2.8,0.49 -2.95,0.51 -3.09,0.55 -3.23,0.58 -3.36,0.6 -3.5,0.64 -3.64,0.67 -3.77,0.71 -3.89,0.73 -4.03,0.75 -4.14,0.79 -4.27,0.82 -4.38,0.84 -4.5,0.87 -4.59,0.88 -4.64,0.91 -4.62,0.89 -4.53,0.89 -4.38,0.85 -4.15,0.8 -3.86,0.75 -3.51,0.68 -3.12,0.59 -2.81,0.52 -2.61,0.47 -2.53,0.44 -2.56,0.43 -2.71,0.43 -2.96,0.46 -3.34,0.5" /></g><g
         transform="scale(1.00007,0.999932)"
         id="g582"><path
           id="path584"
           style="fill:none;stroke:#FFFFFF;stroke-width:7.49999237;stroke-linecap:butt;stroke-linejoin:miter;stroke-miterlimit:10;stroke-dasharray:none;stroke-opacity:1"
           d="m 3499.79,1247.94 -2.38,0.32 -4.81,0.55 -4.79,0.47 -4.83,0.38 -4.93,0.32 -5.09,0.25 -5.33,0.19 -5.59,0.16 -5.82,0.11 -5.95,0.09 -6.01,0.05 -6,0.04 -5.9,0.02 h -5.73 -5.49" /></g><g
         transform="scale(1.00007,0.999932)"
         id="g586"><path
           id="path588"
           style="fill:none;stroke:#FFFFFF;stroke-width:7.49999237;stroke-linecap:butt;stroke-linejoin:miter;stroke-miterlimit:10;stroke-dasharray:none;stroke-opacity:1"
           d="m 3541.79,1226.55 -0.38,0.07 -3.61,0.6 -3.75,0.57 -3.85,0.54 -3.92,0.5 -3.97,0.47 -3.99,0.43 -3.97,0.39 -3.93,0.36 -3.88,0.32 -3.88,0.28 -3.96,0.24 -4.12,0.2 -4.35,0.16 -4.66,0.11 -5.05,0.07 -5.5,0.02" /></g><g
         transform="scale(1.00007,0.999932)"
         id="g590"><path
           id="path592"
           style="fill:none;stroke:#FFFFFF;stroke-width:7.49999237;stroke-linecap:butt;stroke-linejoin:miter;stroke-miterlimit:10;stroke-dasharray:none;stroke-opacity:1"
           d="m 3413.78,1198.11 7.41,0.11 7.63,0.12 7.78,0.13 7.94,0.14 8.08,0.15 8.21,0.17 8.34,0.18 8.54,0.2 8.8,0.23 9.17,0.27 9.59,0.32 10.09,0.38 10.68,0.44 11.34,0.52 12.08,0.61 12.86,0.73 13.7,0.86 6.15,0.44" /></g><g
         transform="scale(1.00007,0.999932)"
         id="g594"><path
           id="path596"
           style="fill:none;stroke:#FFFFFF;stroke-width:7.49999237;stroke-linecap:butt;stroke-linejoin:miter;stroke-miterlimit:10;stroke-dasharray:none;stroke-opacity:1"
           d="m 3415.46,1193.37 -7.95,-0.02 -7.05,-0.09 -6.33,-0.27 -5.76,-0.53 -5.36,-0.86 -5.12,-1.29 -5.05,-1.79 -5.14,-2.39 -5.36,-3.04 -5.59,-3.63 -5.77,-4.12 -5.93,-4.53 -6.06,-4.84 -6.16,-5.06 -6.22,-5.19 -6.25,-5.22 -6.29,-5.19 -6.45,-5.11 -6.81,-5.02 -7.33,-4.9 -8.02,-4.77 -8.88,-4.62 -9.93,-4.44 -11.15,-4.25 -12.51,-4.02 -13.95,-3.73 -15.42,-3.36 -16.96,-2.93 -18.52,-2.4 -20.15,-1.81 -21.82,-1.15 -23.52,-0.39" /></g><g
         transform="scale(1.00007,0.999932)"
         id="g598"><path
           id="path600"
           style="fill:none;stroke:#FFFFFF;stroke-width:7.49999237;stroke-linecap:butt;stroke-linejoin:miter;stroke-miterlimit:10;stroke-dasharray:none;stroke-opacity:1"
           d="m 4035.25,1431.61 v 4.38 l -0.01,4.39 -0.03,4.42 -0.06,4.5 -0.11,4.6 -0.15,4.76 -0.21,4.93 -0.28,5.15 -0.37,5.39 -0.48,5.57 -0.62,5.68 -0.79,5.73 -1,5.71 -1.22,5.61 -1.5,5.44 -1.78,5.21 -2.1,4.91 -2.4,4.62 -2.65,4.32 -2.89,4.03 -3.09,3.73 -3.26,3.44 -3.39,3.16 -3.51,2.88 -3.6,2.6 -3.79,2.39 -4.1,2.21 -2.15,1" /></g><path
         id="path602"
         style="fill:none;stroke:#FFFFFF;stroke-width:7.5;stroke-linecap:butt;stroke-linejoin:miter;stroke-miterlimit:10;stroke-dasharray:none;stroke-opacity:1"
         d="M 4048.8,1336.8 V 1524" /><g
         transform="scale(1.00007,0.999932)"
         id="g604"><path
           id="path606"
           style="fill:none;stroke:#FFFFFF;stroke-width:7.49999237;stroke-linecap:butt;stroke-linejoin:miter;stroke-miterlimit:10;stroke-dasharray:none;stroke-opacity:1"
           d="m 4051,1524.76 c 10.26,-6.88 20.32,-14.1 30.14,-21.61 v 0 c 22.28,-17.04 35.35,-43.49 35.35,-71.54" /></g><g
         transform="scale(1.00007,0.999932)"
         id="g608"><path
           id="path610"
           style="fill:none;stroke:#FFFFFF;stroke-width:7.49999237;stroke-linecap:butt;stroke-linejoin:miter;stroke-miterlimit:10;stroke-dasharray:none;stroke-opacity:1"
           d="m 4051,1524.76 -2.2,1.46 -1.85,1.22 -1.56,1.01 -1.3,0.85 -1.12,0.72 -0.97,0.62 -0.88,0.55 -0.83,0.53 -0.84,0.52 -0.86,0.52 -0.88,0.54 -0.92,0.54 -0.95,0.56 -1,0.59 -1.05,0.61 -1.12,0.63 -1.19,0.67 -1.27,0.7 -1.37,0.75 -1.47,0.79 -1.6,0.85 -1.75,0.9 -1.89,0.96 -2.05,1.03 -2.23,1.11 -2.42,1.17 -2.61,1.24 -2.8,1.31 -3.01,1.37 -3.21,1.43 -3.43,1.5 -3.64,1.55" /></g><g
         transform="scale(1.00007,0.999932)"
         id="g612"><path
           id="path614"
           style="fill:none;stroke:#FFFFFF;stroke-width:7.49999237;stroke-linecap:butt;stroke-linejoin:miter;stroke-miterlimit:10;stroke-dasharray:none;stroke-opacity:1"
           d="m 3865.17,1595.55 0.65,-0.19 4.78,-1.42 5.04,-1.51 5.29,-1.61 5.53,-1.7 5.75,-1.79 5.95,-1.89 6.14,-1.98 6.31,-2.07 6.43,-2.15 6.53,-2.21 6.59,-2.27 6.63,-2.32 6.63,-2.36 6.6,-2.39 6.53,-2.4 6.33,-2.38 6.01,-2.28 5.57,-2.15 4.99,-1.95 4.29,-1.7 3.46,-1.41 2.51,-1.05" /></g><g
         transform="scale(1.00007,0.999932)"
         id="g616"><path
           id="path618"
           style="fill:none;stroke:#FFFFFF;stroke-width:7.49999237;stroke-linecap:butt;stroke-linejoin:miter;stroke-miterlimit:10;stroke-dasharray:none;stroke-opacity:1"
           d="m 4035.25,1431.61 v -4.39 l -0.01,-4.38 -0.03,-4.43 -0.06,-4.49 -0.11,-4.61 -0.15,-4.75 -0.21,-4.93 -0.28,-5.16 -0.37,-5.38 -0.48,-5.57 -0.62,-5.69 -0.79,-5.73 -1,-5.7 -1.22,-5.61 -1.5,-5.44 -1.78,-5.21 -2.1,-4.92 -2.4,-4.62 -2.65,-4.31 -2.89,-4.03 -3.09,-3.73 -3.26,-3.44 -3.39,-3.16 -3.51,-2.88 -3.6,-2.61 -3.79,-2.38 -4.1,-2.22 -2.15,-1" /></g><g
         transform="scale(1.00007,0.999932)"
         id="g620"><path
           id="path622"
           style="fill:none;stroke:#FFFFFF;stroke-width:7.49999237;stroke-linecap:butt;stroke-linejoin:miter;stroke-miterlimit:10;stroke-dasharray:none;stroke-opacity:1"
           d="m 4051,1338.45 -2.2,-1.45 -1.85,-1.22 -1.56,-1.02 -1.3,-0.85 -1.12,-0.72 -0.97,-0.62 -0.88,-0.55 -0.83,-0.52 -0.84,-0.52 -0.86,-0.53 -0.88,-0.53 -0.92,-0.54 -0.95,-0.57 -1,-0.58 -1.05,-0.61 -1.12,-0.64 -1.19,-0.66 -1.27,-0.71 -1.37,-0.74 -1.47,-0.8 -1.6,-0.84 -1.75,-0.9 -1.89,-0.97 -2.05,-1.03 -2.23,-1.1 -2.42,-1.18 -2.61,-1.24 -2.8,-1.3 -3.01,-1.38 -3.21,-1.43 -3.43,-1.49 -3.64,-1.56" /></g><g
         transform="scale(1.00007,0.999932)"
         id="g624"><path
           id="path626"
           style="fill:none;stroke:#FFFFFF;stroke-width:7.49999237;stroke-linecap:butt;stroke-linejoin:miter;stroke-miterlimit:10;stroke-dasharray:none;stroke-opacity:1"
           d="m 4051,1338.45 c 10.26,6.89 20.32,14.1 30.14,21.61 v 0 c 22.28,17.04 35.35,43.5 35.35,71.55" /></g><g
         transform="scale(1.00007,0.999932)"
         id="g628"><path
           id="path630"
           style="fill:none;stroke:#FFFFFF;stroke-width:7.49999237;stroke-linecap:butt;stroke-linejoin:miter;stroke-miterlimit:10;stroke-dasharray:none;stroke-opacity:1"
           d="m 3865.17,1267.67 0.65,0.19 4.78,1.42 5.04,1.51 5.29,1.6 5.53,1.7 5.75,1.79 5.95,1.89 6.14,1.98 6.31,2.07 6.43,2.15 6.53,2.21 6.59,2.27 6.63,2.32 6.63,2.36 6.6,2.4 6.53,2.4 6.33,2.37 6.01,2.29 5.57,2.14 4.99,1.95 4.29,1.71 3.46,1.4 2.51,1.05" /></g><path
         id="path632"
         style="fill:none;stroke:#FFFFFF;stroke-width:7.5;stroke-linecap:butt;stroke-linejoin:miter;stroke-miterlimit:10;stroke-dasharray:none;stroke-opacity:1"
         d="m 2347.2,835.199 141.6,-288" /><g
         transform="scale(1.00007,0.999932)"
         id="g634"><path
           id="path636"
           style="fill:none;stroke:#FFFFFF;stroke-width:7.49999237;stroke-linecap:butt;stroke-linejoin:miter;stroke-miterlimit:10;stroke-dasharray:none;stroke-opacity:1"
           d="m 3040.61,778.545 c 0,29.404 -23.84,53.242 -53.24,53.242 -29.41,0 -53.24,-23.838 -53.24,-53.242 0,-29.405 23.83,-53.242 53.24,-53.242 29.4,0 53.24,23.837 53.24,53.242" /></g><g
         transform="scale(1.00007,0.999932)"
         id="g638"><path
           id="path640"
           style="fill:none;stroke:#FFFFFF;stroke-width:7.49999237;stroke-linecap:butt;stroke-linejoin:miter;stroke-miterlimit:10;stroke-dasharray:none;stroke-opacity:1"
           d="m 2604.03,281.539 c 0,29.404 -23.83,53.241 -53.24,53.241 -29.4,0 -53.24,-23.837 -53.24,-53.241 0,-29.401 23.84,-53.238 53.24,-53.238 29.41,0 53.24,23.837 53.24,53.238" /></g><path
         id="path642"
         style="fill:none;stroke:#FFFFFF;stroke-width:7.5;stroke-linecap:butt;stroke-linejoin:miter;stroke-miterlimit:10;stroke-dasharray:none;stroke-opacity:1"
         d="m 3333.6,996 -43.2,-28.801" /><g
         transform="scale(1.00007,0.999932)"
         id="g644"><path
           id="path646"
           style="fill:none;stroke:#FFFFFF;stroke-width:7.49999237;stroke-linecap:butt;stroke-linejoin:miter;stroke-miterlimit:10;stroke-dasharray:none;stroke-opacity:1"
           d="m 3555.28,778.572 c 0,29.404 -23.84,53.242 -53.24,53.242 -29.4,0 -53.24,-23.838 -53.24,-53.242 0,-29.404 23.84,-53.242 53.24,-53.242 29.4,0 53.24,23.838 53.24,53.242" /></g><path
         id="path648"
         style="fill:none;stroke:#FFFFFF;stroke-width:7.5;stroke-linecap:butt;stroke-linejoin:miter;stroke-miterlimit:10;stroke-dasharray:none;stroke-opacity:1"
         d="m 3153.6,996 43.2,-28.801 h 93.6" /></g></g></svg>
